PendotL-Regular.glyphspackage
{
glyphname = exclam;
layers = (
{
layerId = m01;
shapes = (
{
ref = period;
},
{
closed = 0;
nodes = (
(310,1700,l),
(310,1600,o),
(310,500,o),
(310,400,c)
);
}
);
width = 620;
}
);
unicode = 33;
}
{
glyphname = quotesingle;
layers = (
{
layerId = m01;
shapes = (
{
closed = 0;
nodes = (
(310,1700,l),
(310,1600,o),
(310,1300,o),
(310,1200,c)
);
}
);
width = 620;
}
);
unicode = 39;
}
{
glyphname = parenright;
layers = (
{
layerId = m01;
shapes = (
{
closed = 0;
nodes = (
(250,1800,l),
(430,1620,o),
(580,1300,o),
(580,850,cs),
(580,400,o),
(430,80,o),
(250,-100,c)
);
}
);
width = 830;
},
{
layerId = "FDE4885D-BB7A-448A-91AC-7911E70BCCB6";
shapes = (
{
pos = (250,1800);
ref = _dot;
},
{
pos = (250,-100);
ref = _dot;
},
{
pos = (367.979,1653.704);
ref = _dot;
},
{
pos = (457.204,1488.246);
ref = _dot;
},
{
pos = (520.147,1311.372);
ref = _dot;
},
{
pos = (559.498,1128.018);
ref = _dot;
},
{
pos = (577.897,941.29);
ref = _dot;
},
{
pos = (577.649,753.532);
ref = _dot;
},
{
pos = (558.586,566.108);
ref = _dot;
},
{
pos = (518.377,382.371);
ref = _dot;
},
{
pos = (454.43,205.487);
ref = _dot;
},
{
pos = (364.132,40.47);
ref = _dot;
}
);
width = 830;
}
);
unicode = 41;
}
{
glyphname = asterisk;
layers = (
{
layerId = m01;
shapes = (
{
closed = 0;
nodes = (
(596,1700,l),
(596,1600,o),
(596,1000,o),
(596,900,c)
);
},
{
closed = 0;
nodes = (
(942,1100,l),
(856,1150,o),
(336,1450,o),
(250,1500,c)
);
},
{
closed = 0;
nodes = (
(250,1100,l),
(336,1150,o),
(856,1450,o),
(942,1500,c)
);
}
);
width = 1192;
}
);
unicode = 42;
}
{
glyphname = comma;
layers = (
{
layerId = m01;
shapes = (
{
closed = 0;
nodes = (
(210,-200,l),
(364,-84,o),
(376,-35,o),
(376,0,cs),
(376,35,o),
(353,79,o),
(310,110,c)
);
}
);
width = 620;
}
);
unicode = 44;
}
{
glyphname = hyphen;
layers = (
{
layerId = m01;
shapes = (
{
closed = 0;
nodes = (
(150,800,l),
(250,800,o),
(750,800,o),
(850,800,c)
);
}
);
width = 1000;
},
{
layerId = "FDE4885D-BB7A-448A-91AC-7911E70BCCB6";
shapes = (
{
pos = (150,800);
ref = _dot;
},
{
pos = (850,800);
ref = _dot;
},
{
pos = (250.235,800);
ref = _dot;
},
{
pos = (350.93,800);
ref = _dot;
},
{
pos = (451.526,800);
ref = _dot;
},
{
pos = (552.044,800);
ref = _dot;
},
{
pos = (652.386,800);
ref = _dot;
},
{
pos = (752.478,800);
ref = _dot;
}
);
width = 1000;
}
);
unicode = 45;
}
{
glyphname = period;
layers = (
{
layerId = m01;
shapes = (
{
closed = 0;
nodes = (
(310,0,l),
(310,10,l)
);
}
);
width = 620;
}
);
unicode = 46;
}
{
glyphname = slash;
layers = (
{
layerId = m01;
shapes = (
{
closed = 0;
nodes = (
(170,-100,l),
(215,0,o),
(925,1700,o),
(970,1800,c)
);
}
);
width = 1140;
},
{
layerId = "FDE4885D-BB7A-448A-91AC-7911E70BCCB6";
shapes = (
{
pos = (170,-100);
ref = _dot;
},
{
pos = (970,1800);
ref = _dot;
},
{
pos = (208.81,-9.426);
ref = _dot;
},
{
pos = (247.594,82.35);
ref = _dot;
},
{
pos = (286.222,174.05);
ref = _dot;
},
{
pos = (324.787,265.744);
ref = _dot;
},
{
pos = (362.96,356.597);
ref = _dot;
},
{
pos = (401.491,448.361);
ref = _dot;
},
{
pos = (439.628,539.225);
ref = _dot;
},
{
pos = (477.868,630.364);
ref = _dot;
},
{
pos = (516.911,723.432);
ref = _dot;
},
{
pos = (555.28,814.907);
ref = _dot;
},
{
pos = (593.77,906.67);
ref = _dot;
},
{
pos = (632.066,997.968);
ref = _dot;
},
{
pos = (670.955,1090.667);
ref = _dot;
},
{
pos = (708.965,1181.25);
ref = _dot;
},
{
pos = (747.81,1273.795);
ref = _dot;
},
{
pos = (785.86,1364.4);
ref = _dot;
},
{
pos = (824.316,1455.908);
ref = _dot;
},
{
pos = (862.781,1547.34);
ref = _dot;
},
{
pos = (901.428,1639.034);
ref = _dot;
},
{
pos = (939.831,1729.794);
ref = _dot;
}
);
width = 1140;
}
);
unicode = 47;
}
{
glyphname = one;
layers = (
{
layerId = m01;
shapes = (
{
closed = 0;
nodes = (
(200,0,l),
(300,0,o),
(1200,0,o),
(1300,0,c)
);
},
{
closed = 0;
nodes = (
(200,1300,l),
(335,1398,o),
(650,1618,o),
(750,1700,c,{
co.uk.corvelsoftware.Dotter = {
locally_forced = 1;
};
}),
(750,1600,o),
(750,100,o),
(750,0,c)
);
}
);
width = 1500;
},
{
layerId = "FDE4885D-BB7A-448A-91AC-7911E70BCCB6";
shapes = (
{
pos = (200,0);
ref = _dot;
},
{
pos = (1300,0);
ref = _dot;
},
{
pos = (200,1300);
ref = _dot;
},
{
pos = (750,1700);
ref = _dot;
},
{
pos = (750,0);
ref = _dot;
},
{
pos = (383.44,0);
ref = _dot;
},
{
pos = (567.051,0);
ref = _dot;
},
{
pos = (935.799,0);
ref = _dot;
},
{
pos = (1120.045,0);
ref = _dot;
},
{
pos = (338.504,1399.207);
ref = _dot;
},
{
pos = (477.083,1498.089);
ref = _dot;
},
{
pos = (615.509,1598.076);
ref = _dot;
},
{
pos = (750,1510.585);
ref = _dot;
},
{
pos = (750,1319.923);
ref = _dot;
},
{
pos = (750,1130.882);
ref = _dot;
},
{
pos = (750,941.046);
ref = _dot;
},
{
pos = (750,751.793);
ref = _dot;
},
{
pos = (750,562.284);
ref = _dot;
},
{
pos = (750,371.931);
ref = _dot;
},
{
pos = (750,181.516);
ref = _dot;
}
);
width = 1500;
}
);
unicode = 49;
}
{
glyphname = two;
layers = (
{
background = {
shapes = (
{
closed = 0;
nodes = (
(170,0,l),
(1330,0,l)
);
},
{
closed = 0;
nodes = (
(270,1440,l),
(390,1606,o),
(540,1700,o),
(750,1700,cs),
(990,1700,o),
(1220,1569,o),
(1220,1310,cs),
(1220,1065,o),
(989,900,o),
(749,900,c),
(590,901,l)
);
}
);
};
layerId = m01;
shapes = (
{
closed = 0;
nodes = (
(250,1440,l),
(370,1606,o),
(540,1700,o),
(780,1700,cs),
(1020,1700,o),
(1220,1550,o),
(1220,1310,cs),
(1220,1110,o),
(1069,959,o),
(849,710,cs),
(220,0,l),
(1280,0,l)
);
}
);
width = 1500;
},
{
layerId = "FDE4885D-BB7A-448A-91AC-7911E70BCCB6";
shapes = (
{
pos = (250,1440);
ref = _dot;
},
{
pos = (1280,0);
ref = _dot;
},
{
pos = (381.678,1576.873);
ref = _dot;
},
{
pos = (549.97,1665.445);
ref = _dot;
},
{
pos = (737.552,1698.99);
ref = _dot;
},
{
pos = (926.37,1680.164);
ref = _dot;
},
{
pos = (1093.817,1591.737);
ref = _dot;
},
{
pos = (1199.857,1435.418);
ref = _dot;
},
{
pos = (1214.82,1246.729);
ref = _dot;
},
{
pos = (1144.472,1070.267);
ref = _dot;
},
{
pos = (1030.756,917.089);
ref = _dot;
},
{
pos = (904.799,772.861);
ref = _dot;
},
{
pos = (777.923,629.77);
ref = _dot;
},
{
pos = (651.494,487.06);
ref = _dot;
},
{
pos = (525.065,344.35);
ref = _dot;
},
{
pos = (398.636,201.64);
ref = _dot;
},
{
pos = (272.207,58.93);
ref = _dot;
},
{
pos = (523.16,0);
ref = _dot;
},
{
pos = (713.96,0);
ref = _dot;
},
{
pos = (904.76,0);
ref = _dot;
},
{
pos = (1095.56,0);
ref = _dot;
}
);
width = 1500;
}
);
unicode = 50;
}
{
glyphname = three;
layers = (
{
background = {
shapes = (
{
closed = 0;
nodes = (
(270,1440,l),
(390,1596,o),
(510,1700,o),
(750,1700,cs),
(990,1700,o),
(1220,1569,o),
(1220,1310,cs),
(1220,1065,o),
(989,900,o),
(749,900,c),
(590,901,l)
);
},
{
closed = 0;
nodes = (
(230,330,l),
(299,145,o),
(470,0,o),
(750,0,cs),
(1030,0,o),
(1280,155,o),
(1280,450,cs),
(1280,721,o),
(1028,900,o),
(750,900,cs)
);
}
);
};
layerId = m01;
shapes = (
{
closed = 0;
nodes = (
(270,1440,l),
(390,1606,o),
(540,1700,o),
(750,1700,cs),
(990,1700,o),
(1220,1569,o),
(1220,1310,cs),
(1220,1065,o),
(989,900,o),
(749,900,c),
(590,901,l)
);
},
{
closed = 0;
nodes = (
(230,330,l),
(299,155,o),
(500,0,o),
(750,0,cs),
(1030,0,o),
(1280,155,o),
(1280,450,cs),
(1280,721,o),
(1028,900,o),
(750,900,cs)
);
}
);
width = 1500;
}
);
unicode = 51;
}
{
glyphname = four;
layers = (
{
layerId = m01;
shapes = (
{
closed = 0;
nodes = (
(1330,500,l),
(1230,500,o),
(270,500,o),
(170,500,c),
(308,717,o),
(840,1520,o),
(950,1700,c,{
co.uk.corvelsoftware.Dotter = {
locally_forced = 1;
};
}),
(950,1600,o),
(950,100,o),
(950,0,c)
);
}
);
width = 1500;
}
);
unicode = 52;
}
{
glyphname = five;
layers = (
{
layerId = m01;
shapes = (
{
closed = 0;
nodes = (
(220,330,l),
(289,155,o),
(490,0,o),
(740,0,cs),
(1020,0,o),
(1270,175,o),
(1270,520,cs),
(1270,800,o),
(1076,1000,o),
(740,1000,cs),
(567,1000,o),
(397,937,o),
(250,800,c),
(250,1700,l),
(1230,1700,l)
);
}
);
width = 1500;
},
{
layerId = "FDE4885D-BB7A-448A-91AC-7911E70BCCB6";
shapes = (
{
pos = (220,330);
ref = _dot;
},
{
pos = (1230,1700);
ref = _dot;
},
{
pos = (323.202,173.459);
ref = _dot;
},
{
pos = (475.38,62.418);
ref = _dot;
},
{
pos = (655.108,6.046);
ref = _dot;
},
{
pos = (843.164,8.193);
ref = _dot;
},
{
pos = (1021.161,68.183);
ref = _dot;
},
{
pos = (1165.067,189.171);
ref = _dot;
},
{
pos = (1248.931,357.093);
ref = _dot;
},
{
pos = (1269.512,544.155);
ref = _dot;
},
{
pos = (1228.292,727.626);
ref = _dot;
},
{
pos = (1116.542,877.974);
ref = _dot;
},
{
pos = (951.88,968.684);
ref = _dot;
},
{
pos = (765.919,999.597);
ref = _dot;
},
{
pos = (578.541,981.025);
ref = _dot;
},
{
pos = (403.286,912.385);
ref = _dot;
},
{
pos = (251.324,801.231);
ref = _dot;
},
{
pos = (250,987.2);
ref = _dot;
},
{
pos = (250,1176.2);
ref = _dot;
},
{
pos = (250,1365.2);
ref = _dot;
},
{
pos = (250,1554.2);
ref = _dot;
},
{
pos = (293.12,1700);
ref = _dot;
},
{
pos = (482.26,1700);
ref = _dot;
},
{
pos = (671.4,1700);
ref = _dot;
},
{
pos = (860.54,1700);
ref = _dot;
},
{
pos = (1049.68,1700);
ref = _dot;
}
);
width = 1500;
},
{
associatedMasterId = m01;
layerId = "FFC39D76-495A-4D9F-AB6F-8CA6287D557E";
name = "Pendot Quick Preview";
shapes = (
{
closed = 1;
nodes = (
(250,337.956,o),
(246.839,345.587,o),
(241.213,351.213,c),
(235.587,356.839,o),
(227.956,360,o),
(220,360,c),
(212.044,360,o),
(204.413,356.839,o),
(198.787,351.213,c),
(193.161,345.587,o),
(190,337.956,o),
(190,330,c),
(190,322.044,o),
(193.161,314.413,o),
(198.787,308.787,c),
(204.413,303.161,o),
(212.044,300,o),
(220,300,c),
(227.956,300,o),
(235.587,303.161,o),
(241.213,308.787,c),
(246.839,314.413,o),
(250,322.044,o),
(250,330,c)
);
},
{
closed = 1;
nodes = (
(1260,1707.956,o),
(1256.839,1715.587,o),
(1251.213,1721.213,c),
(1245.587,1726.839,o),
(1237.956,1730,o),
(1230,1730,c),
(1222.044,1730,o),
(1214.413,1726.839,o),
(1208.787,1721.213,c),
(1203.161,1715.587,o),
(1200,1707.956,o),
(1200,1700,c),
(1200,1692.044,o),
(1203.161,1684.413,o),
(1208.787,1678.787,c),
(1214.413,1673.161,o),
(1222.044,1670,o),
(1230,1670,c),
(1237.956,1670,o),
(1245.587,1673.161,o),
(1251.213,1678.787,c),
(1256.839,1684.413,o),
(1260,1692.044,o),
(1260,1700,c)
);
},
{
closed = 1;
nodes = (
(297.233,249.626,o),
(294.072,257.257,o),
(288.446,262.883,c),
(282.82,268.509,o),
(275.19,271.67,o),
(267.233,271.67,c),
(259.277,271.67,o),
(251.646,268.509,o),
(246.02,262.883,c),
(240.394,257.257,o),
(237.233,249.626,o),
(237.233,241.67,c),
(237.233,233.713,o),
(240.394,226.083,o),
(246.02,220.457,c),
(251.646,214.83,o),
(259.277,211.67,o),
(267.233,211.67,c),
(275.19,211.67,o),
(282.82,214.83,o),
(288.446,220.457,c),
(294.072,226.083,o),
(297.233,233.713,o),
(297.233,241.67,c)
);
},
{
closed = 1;
nodes = (
(362.002,172.574,o),
(358.841,180.205,o),
(353.215,185.831,c),
(347.589,191.457,o),
(339.958,194.618,o),
(332.002,194.618,c),
(324.045,194.618,o),
(316.415,191.457,o),
(310.789,185.831,c),
(305.162,180.205,o),
(302.002,172.574,o),
(302.002,164.618,c),
(302.002,156.661,o),
(305.162,149.03,o),
(310.789,143.405,c),
(316.415,137.778,o),
(324.045,134.618,o),
(332.002,134.618,c),
(339.958,134.618,o),
(347.589,137.778,o),
(353.215,143.405,c),
(358.841,149.03,o),
(362.002,156.661,o),
(362.002,164.618,c)
);
},
{
closed = 1;
nodes = (
(439.966,108.791,o),
(436.806,116.421,o),
(431.179,122.047,c),
(425.553,127.673,o),
(417.923,130.834,o),
(409.966,130.834,c),
(402.01,130.834,o),
(394.379,127.673,o),
(388.753,122.047,c),
(383.127,116.421,o),
(379.966,108.791,o),
(379.966,100.834,c),
(379.966,92.878,o),
(383.127,85.247,o),
(388.753,79.621,c),
(394.379,73.995,o),
(402.01,70.834,o),
(409.966,70.834,c),
(417.923,70.834,o),
(425.553,73.995,o),
(431.179,79.621,c),
(436.806,85.247,o),
(439.966,92.878,o),
(439.966,100.834,c)
);
},
{
closed = 1;
nodes = (
(527.834,59.684,o),
(524.673,67.315,o),
(519.047,72.94,c),
(513.421,78.567,o),
(505.79,81.727,o),
(497.834,81.727,c),
(489.877,81.727,o),
(482.247,78.567,o),
(476.621,72.94,c),
(470.995,67.315,o),
(467.834,59.684,o),
(467.834,51.727,c),
(467.834,43.771,o),
(470.995,36.14,o),
(476.621,30.514,c),
(482.247,24.888,o),
(489.877,21.727,o),
(497.834,21.727,c),
(505.79,21.727,o),
(513.421,24.888,o),
(519.047,30.514,c),
(524.673,36.14,o),
(527.834,43.771,o),
(527.834,51.727,c)
);
},
{
closed = 1;
nodes = (
(622.464,26.509,o),
(619.303,34.14,o),
(613.677,39.766,c),
(608.051,45.392,o),
(600.42,48.553,o),
(592.464,48.553,c),
(584.507,48.553,o),
(576.877,45.392,o),
(571.251,39.766,c),
(565.624,34.14,o),
(562.464,26.509,o),
(562.464,18.553,c),
(562.464,10.596,o),
(565.624,2.965,o),
(571.251,-2.66,c),
(576.877,-8.287,o),
(584.507,-11.447,o),
(592.464,-11.447,c),
(600.42,-11.447,o),
(608.051,-8.287,o),
(613.677,-2.66,c),
(619.303,2.965,o),
(622.464,10.596,o),
(622.464,18.553,c)
);
},
{
closed = 1;
nodes = (
(721.894,9.884,o),
(718.733,17.515,o),
(713.107,23.141,c),
(707.481,28.767,o),
(699.85,31.928,o),
(691.894,31.928,c),
(683.937,31.928,o),
(676.307,28.767,o),
(670.681,23.141,c),
(665.055,17.515,o),
(661.894,9.884,o),
(661.894,1.928,c),
(661.894,-6.029,o),
(665.055,-13.66,o),
(670.681,-19.285,c),
(676.307,-24.912,o),
(683.937,-28.072,o),
(691.894,-28.072,c),
(699.85,-28.072,o),
(707.481,-24.912,o),
(713.107,-19.285,c),
(718.733,-13.66,o),
(721.894,-6.029,o),
(721.894,1.928,c)
);
},
{
closed = 1;
nodes = (
(822.508,10.039,o),
(819.347,17.67,o),
(813.721,23.295,c),
(808.095,28.922,o),
(800.464,32.082,o),
(792.508,32.082,c),
(784.551,32.082,o),
(776.921,28.922,o),
(771.295,23.295,c),
(765.668,17.67,o),
(762.508,10.039,o),
(762.508,2.082,c),
(762.508,-5.874,o),
(765.668,-13.505,o),
(771.295,-19.131,c),
(776.921,-24.757,o),
(784.551,-27.918,o),
(792.508,-27.918,c),
(800.464,-27.918,o),
(808.095,-24.757,o),
(813.721,-19.131,c),
(819.347,-13.505,o),
(822.508,-5.874,o),
(822.508,2.082,c)
);
},
{
closed = 1;
nodes = (
(921.711,26.087,o),
(918.55,33.718,o),
(912.924,39.344,c),
(907.298,44.97,o),
(899.667,48.131,o),
(891.711,48.131,c),
(883.754,48.131,o),
(876.124,44.97,o),
(870.498,39.344,c),
(864.871,33.718,o),
(861.711,26.087,o),
(861.711,18.131,c),
(861.711,10.174,o),
(864.871,2.544,o),
(870.498,-3.082,c),
(876.124,-8.709,o),
(883.754,-11.869,o),
(891.711,-11.869,c),
(899.667,-11.869,o),
(907.298,-8.709,o),
(912.924,-3.082,c),
(918.55,2.544,o),
(921.711,10.174,o),
(921.711,18.131,c)
);
},
{
closed = 1;
nodes = (
(1016.637,58.91,o),
(1013.477,66.541,o),
(1007.85,72.167,c),
(1002.224,77.793,o),
(994.594,80.954,o),
(986.637,80.954,c),
(978.681,80.954,o),
(971.05,77.793,o),
(965.424,72.167,c),
(959.798,66.541,o),
(956.637,58.91,o),
(956.637,50.954,c),
(956.637,42.997,o),
(959.798,35.367,o),
(965.424,29.741,c),
(971.05,24.114,o),
(978.681,20.954,o),
(986.637,20.954,c),
(994.594,20.954,o),
(1002.224,24.114,o),
(1007.85,29.741,c),
(1013.477,35.367,o),
(1016.637,42.997,o),
(1016.637,50.954,c)
);
},
{
closed = 1;
nodes = (
(1103.436,109.171,o),
(1100.275,116.801,o),
(1094.649,122.427,c),
(1089.023,128.053,o),
(1081.392,131.214,o),
(1073.436,131.214,c),
(1065.479,131.214,o),
(1057.848,128.053,o),
(1052.223,122.427,c),
(1046.596,116.801,o),
(1043.436,109.171,o),
(1043.436,101.214,c),
(1043.436,93.258,o),
(1046.596,85.627,o),
(1052.223,80.001,c),
(1057.848,74.375,o),
(1065.479,71.214,o),
(1073.436,71.214,c),
(1081.392,71.214,o),
(1089.023,74.375,o),
(1094.649,80.001,c),
(1100.275,85.627,o),
(1103.436,93.258,o),
(1103.436,101.214,c)
);
},
{
closed = 1;
nodes = (
(1177.769,176.418,o),
(1174.608,184.048,o),
(1168.982,189.674,c),
(1163.356,195.301,o),
(1155.725,198.461,o),
(1147.769,198.461,c),
(1139.812,198.461,o),
(1132.182,195.301,o),
(1126.556,189.674,c),
(1120.929,184.048,o),
(1117.769,176.418,o),
(1117.769,168.461,c),
(1117.769,160.505,o),
(1120.929,152.874,o),
(1126.556,147.248,c),
(1132.182,141.622,o),
(1139.812,138.461,o),
(1147.769,138.461,c),
(1155.725,138.461,o),
(1163.356,141.622,o),
(1168.982,147.248,c),
(1174.608,152.874,o),
(1177.769,160.505,o),
(1177.769,168.461,c)
);
},
{
closed = 1;
nodes = (
(1235.679,258.423,o),
(1232.518,266.054,o),
(1226.892,271.68,c),
(1221.266,277.306,o),
(1213.635,280.467,o),
(1205.679,280.467,c),
(1197.722,280.467,o),
(1190.092,277.306,o),
(1184.466,271.68,c),
(1178.84,266.054,o),
(1175.679,258.423,o),
(1175.679,250.467,c),
(1175.679,242.51,o),
(1178.84,234.88,o),
(1184.466,229.254,c),
(1190.092,223.627,o),
(1197.722,220.467,o),
(1205.679,220.467,c),
(1213.635,220.467,o),
(1221.266,223.627,o),
(1226.892,229.254,c),
(1232.518,234.88,o),
(1235.679,242.51,o),
(1235.679,250.467,c)
);
},
{
closed = 1;
nodes = (
(1274.954,351.435,o),
(1271.793,359.066,o),
(1266.167,364.692,c),
(1260.541,370.318,o),
(1252.91,373.479,o),
(1244.954,373.479,c),
(1236.997,373.479,o),
(1229.367,370.318,o),
(1223.741,364.692,c),
(1218.115,359.066,o),
(1214.954,351.435,o),
(1214.954,343.479,c),
(1214.954,335.522,o),
(1218.115,327.892,o),
(1223.741,322.266,c),
(1229.367,316.639,o),
(1236.997,313.479,o),
(1244.954,313.479,c),
(1252.91,313.479,o),
(1260.541,316.639,o),
(1266.167,322.266,c),
(1271.793,327.892,o),
(1274.954,335.522,o),
(1274.954,343.479,c)
);
},
{
closed = 1;
nodes = (
(1295.541,450.332,o),
(1292.381,457.962,o),
(1286.754,463.588,c),
(1281.129,469.215,o),
(1273.498,472.375,o),
(1265.541,472.375,c),
(1257.585,472.375,o),
(1249.954,469.215,o),
(1244.328,463.588,c),
(1238.702,457.962,o),
(1235.541,450.332,o),
(1235.541,442.375,c),
(1235.541,434.419,o),
(1238.702,426.788,o),
(1244.328,421.162,c),
(1249.954,415.536,o),
(1257.585,412.375,o),
(1265.541,412.375,c),
(1273.498,412.375,o),
(1281.129,415.536,o),
(1286.754,421.162,c),
(1292.381,426.788,o),
(1295.541,434.419,o),
(1295.541,442.375,c)
);
},
{
closed = 1;
nodes = (
(1299.545,551.286,o),
(1296.384,558.916,o),
(1290.758,564.542,c),
(1285.132,570.168,o),
(1277.501,573.329,o),
(1269.545,573.329,c),
(1261.588,573.329,o),
(1253.958,570.168,o),
(1248.332,564.542,c),
(1242.706,558.916,o),
(1239.545,551.286,o),
(1239.545,543.329,c),
(1239.545,535.373,o),
(1242.706,527.742,o),
(1248.332,522.116,c),
(1253.958,516.49,o),
(1261.588,513.329,o),
(1269.545,513.329,c),
(1277.501,513.329,o),
(1285.132,516.49,o),
(1290.758,522.116,c),
(1296.384,527.742,o),
(1299.545,535.373,o),
(1299.545,543.329,c)
);
},
{
closed = 1;
nodes = (
(1286.387,651.186,o),
(1283.226,658.817,o),
(1277.6,664.443,c),
(1271.974,670.069,o),
(1264.344,673.23,o),
(1256.387,673.23,c),
(1248.431,673.23,o),
(1240.8,670.069,o),
(1235.174,664.443,c),
(1229.548,658.817,o),
(1226.387,651.186,o),
(1226.387,643.23,c),
(1226.387,635.273,o),
(1229.548,627.643,o),
(1235.174,622.017,c),
(1240.8,616.391,o),
(1248.431,613.23,o),
(1256.387,613.23,c),
(1264.344,613.23,o),
(1271.974,616.391,o),
(1277.6,622.017,c),
(1283.226,627.643,o),
(1286.387,635.273,o),
(1286.387,643.23,c)
);
},
{
closed = 1;
nodes = (
(1253.291,746.431,o),
(1250.13,754.062,o),
(1244.504,759.688,c),
(1238.878,765.314,o),
(1231.247,768.475,o),
(1223.291,768.475,c),
(1215.334,768.475,o),
(1207.703,765.314,o),
(1202.078,759.688,c),
(1196.451,754.062,o),
(1193.291,746.431,o),
(1193.291,738.475,c),
(1193.291,730.518,o),
(1196.451,722.888,o),
(1202.078,717.262,c),
(1207.703,711.635,o),
(1215.334,708.475,o),
(1223.291,708.475,c),
(1231.247,708.475,o),
(1238.878,711.635,o),
(1244.504,717.262,c),
(1250.13,722.888,o),
(1253.291,730.518,o),
(1253.291,738.475,c)
);
},
{
closed = 1;
nodes = (
(1199.799,831.251,o),
(1196.638,838.882,o),
(1191.012,844.508,c),
(1185.386,850.134,o),
(1177.756,853.295,o),
(1169.799,853.295,c),
(1161.843,853.295,o),
(1154.212,850.134,o),
(1148.586,844.508,c),
(1142.96,838.882,o),
(1139.799,831.251,o),
(1139.799,823.295,c),
(1139.799,815.338,o),
(1142.96,807.708,o),
(1148.586,802.082,c),
(1154.212,796.455,o),
(1161.843,793.295,o),
(1169.799,793.295,c),
(1177.756,793.295,o),
(1185.386,796.455,o),
(1191.012,802.082,c),
(1196.638,807.708,o),
(1199.799,815.338,o),
(1199.799,823.295,c)
);
},
{
closed = 1;
nodes = (
(1127.821,901.1,o),
(1124.66,908.731,o),
(1119.034,914.357,c),
(1113.408,919.983,o),
(1105.777,923.144,o),
(1097.821,923.144,c),
(1089.864,923.144,o),
(1082.234,919.983,o),
(1076.608,914.357,c),
(1070.981,908.731,o),
(1067.821,901.1,o),
(1067.821,893.144,c),
(1067.821,885.187,o),
(1070.981,877.557,o),
(1076.608,871.931,c),
(1082.234,866.304,o),
(1089.864,863.144,o),
(1097.821,863.144,c),
(1105.777,863.144,o),
(1113.408,866.304,o),
(1119.034,871.931,c),
(1124.66,877.557,o),
(1127.821,885.187,o),
(1127.821,893.144,c)
);
},
{
closed = 1;
nodes = (
(1041.448,953.195,o),
(1038.287,960.825,o),
(1032.661,966.451,c),
(1027.035,972.077,o),
(1019.405,975.238,o),
(1011.448,975.238,c),
(1003.492,975.238,o),
(995.861,972.077,o),
(990.235,966.451,c),
(984.609,960.825,o),
(981.448,953.195,o),
(981.448,945.238,c),
(981.448,937.282,o),
(984.609,929.651,o),
(990.235,924.025,c),
(995.861,918.399,o),
(1003.492,915.238,o),
(1011.448,915.238,c),
(1019.405,915.238,o),
(1027.035,918.399,o),
(1032.661,924.025,c),
(1038.287,929.651,o),
(1041.448,937.282,o),
(1041.448,945.238,c)
);
},
{
closed = 1;
nodes = (
(946.625,986.904,o),
(943.464,994.535,o),
(937.838,1000.161,c),
(932.212,1005.787,o),
(924.581,1008.948,o),
(916.625,1008.948,c),
(908.668,1008.948,o),
(901.038,1005.787,o),
(895.412,1000.161,c),
(889.785,994.535,o),
(886.625,986.904,o),
(886.625,978.948,c),
(886.625,970.991,o),
(889.785,963.36,o),
(895.412,957.735,c),
(901.038,952.108,o),
(908.668,948.948,o),
(916.625,948.948,c),
(924.581,948.948,o),
(932.212,952.108,o),
(937.838,957.735,c),
(943.464,963.36,o),
(946.625,970.991,o),
(946.625,978.948,c)
);
},
{
closed = 1;
nodes = (
(846.948,1004.271,o),
(843.787,1011.902,o),
(838.161,1017.528,c),
(832.535,1023.154,o),
(824.904,1026.315,o),
(816.948,1026.315,c),
(808.991,1026.315,o),
(801.361,1023.154,o),
(795.735,1017.528,c),
(790.108,1011.902,o),
(786.948,1004.271,o),
(786.948,996.315,c),
(786.948,988.358,o),
(790.108,980.727,o),
(795.735,975.102,c),
(801.361,969.475,o),
(808.991,966.315,o),
(816.948,966.315,c),
(824.904,966.315,o),
(832.535,969.475,o),
(838.161,975.102,c),
(843.787,980.727,o),
(846.948,988.358,o),
(846.948,996.315,c)
);
},
{
closed = 1;
nodes = (
(746.665,1007.573,o),
(743.504,1015.203,o),
(737.878,1020.829,c),
(732.252,1026.456,o),
(724.622,1029.616,o),
(716.665,1029.616,c),
(708.709,1029.616,o),
(701.078,1026.456,o),
(695.452,1020.829,c),
(689.826,1015.203,o),
(686.665,1007.573,o),
(686.665,999.616,c),
(686.665,991.66,o),
(689.826,984.029,o),
(695.452,978.403,c),
(701.078,972.777,o),
(708.709,969.616,o),
(716.665,969.616,c),
(724.622,969.616,o),
(732.252,972.777,o),
(737.878,978.403,c),
(743.504,984.029,o),
(746.665,991.66,o),
(746.665,999.616,c)
);
},
{
closed = 1;
nodes = (
(646.746,997.01,o),
(643.585,1004.641,o),
(637.959,1010.267,c),
(632.333,1015.893,o),
(624.703,1019.054,o),
(616.746,1019.054,c),
(608.79,1019.054,o),
(601.159,1015.893,o),
(595.533,1010.267,c),
(589.907,1004.641,o),
(586.746,997.01,o),
(586.746,989.054,c),
(586.746,981.097,o),
(589.907,973.467,o),
(595.533,967.841,c),
(601.159,962.215,o),
(608.79,959.054,o),
(616.746,959.054,c),
(624.703,959.054,o),
(632.333,962.215,o),
(637.959,967.841,c),
(643.585,973.467,o),
(646.746,981.097,o),
(646.746,989.054,c)
);
},
{
closed = 1;
nodes = (
(549.584,971.967,o),
(546.423,979.598,o),
(540.797,985.223,c),
(535.171,990.85,o),
(527.541,994.01,o),
(519.584,994.01,c),
(511.628,994.01,o),
(503.997,990.85,o),
(498.371,985.223,c),
(492.745,979.598,o),
(489.584,971.967,o),
(489.584,964.01,c),
(489.584,956.054,o),
(492.745,948.423,o),
(498.371,942.797,c),
(503.997,937.171,o),
(511.628,934.01,o),
(519.584,934.01,c),
(527.541,934.01,o),
(535.171,937.171,o),
(540.797,942.797,c),
(546.423,948.423,o),
(549.584,956.054,o),
(549.584,964.01,c)
);
},
{
closed = 1;
nodes = (
(456.931,932.93,o),
(453.77,940.561,o),
(448.144,946.187,c),
(442.518,951.813,o),
(434.887,954.974,o),
(426.931,954.974,c),
(418.975,954.974,o),
(411.344,951.813,o),
(405.718,946.187,c),
(400.092,940.561,o),
(396.931,932.93,o),
(396.931,924.974,c),
(396.931,917.017,o),
(400.092,909.387,o),
(405.718,903.761,c),
(411.344,898.134,o),
(418.975,894.974,o),
(426.931,894.974,c),
(434.887,894.974,o),
(442.518,898.134,o),
(448.144,903.761,c),
(453.77,909.387,o),
(456.931,917.017,o),
(456.931,924.974,c)
);
},
{
closed = 1;
nodes = (
(370.8,881.364,o),
(367.639,888.995,o),
(362.013,894.621,c),
(356.387,900.247,o),
(348.756,903.408,o),
(340.8,903.408,c),
(332.844,903.408,o),
(325.213,900.247,o),
(319.587,894.621,c),
(313.961,888.995,o),
(310.8,881.364,o),
(310.8,873.408,c),
(310.8,865.452,o),
(313.961,857.821,o),
(319.587,852.195,c),
(325.213,846.569,o),
(332.844,843.408,o),
(340.8,843.408,c),
(348.756,843.408,o),
(356.387,846.569,o),
(362.013,852.195,c),
(367.639,857.821,o),
(370.8,865.452,o),
(370.8,873.408,c)
);
},
{
closed = 1;
nodes = (
(291.957,818.892,o),
(288.796,826.522,o),
(283.17,832.148,c),
(277.544,837.775,o),
(269.913,840.935,o),
(261.957,840.935,c),
(254,840.935,o),
(246.37,837.775,o),
(240.744,832.148,c),
(235.118,826.522,o),
(231.957,818.892,o),
(231.957,810.935,c),
(231.957,802.979,o),
(235.118,795.348,o),
(240.744,789.722,c),
(246.37,784.096,o),
(254,780.935,o),
(261.957,780.935,c),
(269.913,780.935,o),
(277.544,784.096,o),
(283.17,789.722,c),
(288.796,795.348,o),
(291.957,802.979,o),
(291.957,810.935,c)
);
},
{
closed = 1;
nodes = (
(280,892.556,o),
(276.839,900.187,o),
(271.213,905.813,c),
(265.587,911.439,o),
(257.956,914.6,o),
(250,914.6,c),
(242.044,914.6,o),
(234.413,911.439,o),
(228.787,905.813,c),
(223.161,900.187,o),
(220,892.556,o),
(220,884.6,c),
(220,876.644,o),
(223.161,869.013,o),
(228.787,863.387,c),
(234.413,857.761,o),
(242.044,854.6,o),
(250,854.6,c),
(257.956,854.6,o),
(265.587,857.761,o),
(271.213,863.387,c),
(276.839,869.013,o),
(280,876.644,o),
(280,884.6,c)
);
},
{
closed = 1;
nodes = (
(280,993.356,o),
(276.839,1000.987,o),
(271.213,1006.613,c),
(265.587,1012.239,o),
(257.956,1015.4,o),
(250,1015.4,c),
(242.044,1015.4,o),
(234.413,1012.239,o),
(228.787,1006.613,c),
(223.161,1000.987,o),
(220,993.356,o),
(220,985.4,c),
(220,977.444,o),
(223.161,969.813,o),
(228.787,964.187,c),
(234.413,958.561,o),
(242.044,955.4,o),
(250,955.4,c),
(257.956,955.4,o),
(265.587,958.561,o),
(271.213,964.187,c),
(276.839,969.813,o),
(280,977.444,o),
(280,985.4,c)
);
},
{
closed = 1;
nodes = (
(280,1094.156,o),
(276.839,1101.787,o),
(271.213,1107.413,c),
(265.587,1113.039,o),
(257.956,1116.2,o),
(250,1116.2,c),
(242.044,1116.2,o),
(234.413,1113.039,o),
(228.787,1107.413,c),
(223.161,1101.787,o),
(220,1094.156,o),
(220,1086.2,c),
(220,1078.244,o),
(223.161,1070.613,o),
(228.787,1064.987,c),
(234.413,1059.361,o),
(242.044,1056.2,o),
(250,1056.2,c),
(257.956,1056.2,o),
(265.587,1059.361,o),
(271.213,1064.987,c),
(276.839,1070.613,o),
(280,1078.244,o),
(280,1086.2,c)
);
},
{
closed = 1;
nodes = (
(280,1194.956,o),
(276.839,1202.587,o),
(271.213,1208.213,c),
(265.587,1213.839,o),
(257.956,1217,o),
(250,1217,c),
(242.044,1217,o),
(234.413,1213.839,o),
(228.787,1208.213,c),
(223.161,1202.587,o),
(220,1194.956,o),
(220,1187,c),
(220,1179.044,o),
(223.161,1171.413,o),
(228.787,1165.787,c),
(234.413,1160.161,o),
(242.044,1157,o),
(250,1157,c),
(257.956,1157,o),
(265.587,1160.161,o),
(271.213,1165.787,c),
(276.839,1171.413,o),
(280,1179.044,o),
(280,1187,c)
);
},
{
closed = 1;
nodes = (
(280,1295.756,o),
(276.839,1303.387,o),
(271.213,1309.013,c),
(265.587,1314.639,o),
(257.956,1317.8,o),
(250,1317.8,c),
(242.044,1317.8,o),
(234.413,1314.639,o),
(228.787,1309.013,c),
(223.161,1303.387,o),
(220,1295.756,o),
(220,1287.8,c),
(220,1279.844,o),
(223.161,1272.213,o),
(228.787,1266.587,c),
(234.413,1260.961,o),
(242.044,1257.8,o),
(250,1257.8,c),
(257.956,1257.8,o),
(265.587,1260.961,o),
(271.213,1266.587,c),
(276.839,1272.213,o),
(280,1279.844,o),
(280,1287.8,c)
);
},
{
closed = 1;
nodes = (
(280,1396.556,o),
(276.839,1404.187,o),
(271.213,1409.813,c),
(265.587,1415.439,o),
(257.956,1418.6,o),
(250,1418.6,c),
(242.044,1418.6,o),
(234.413,1415.439,o),
(228.787,1409.813,c),
(223.161,1404.187,o),
(220,1396.556,o),
(220,1388.6,c),
(220,1380.644,o),
(223.161,1373.013,o),
(228.787,1367.387,c),
(234.413,1361.761,o),
(242.044,1358.6,o),
(250,1358.6,c),
(257.956,1358.6,o),
(265.587,1361.761,o),
(271.213,1367.387,c),
(276.839,1373.013,o),
(280,1380.644,o),
(280,1388.6,c)
);
},
{
closed = 1;
nodes = (
(280,1497.356,o),
(276.839,1504.987,o),
(271.213,1510.613,c),
(265.587,1516.239,o),
(257.956,1519.4,o),
(250,1519.4,c),
(242.044,1519.4,o),
(234.413,1516.239,o),
(228.787,1510.613,c),
(223.161,1504.987,o),
(220,1497.356,o),
(220,1489.4,c),
(220,1481.444,o),
(223.161,1473.813,o),
(228.787,1468.187,c),
(234.413,1462.561,o),
(242.044,1459.4,o),
(250,1459.4,c),
(257.956,1459.4,o),
(265.587,1462.561,o),
(271.213,1468.187,c),
(276.839,1473.813,o),
(280,1481.444,o),
(280,1489.4,c)
);
},
{
closed = 1;
nodes = (
(280,1598.156,o),
(276.839,1605.787,o),
(271.213,1611.413,c),
(265.587,1617.039,o),
(257.956,1620.2,o),
(250,1620.2,c),
(242.044,1620.2,o),
(234.413,1617.039,o),
(228.787,1611.413,c),
(223.161,1605.787,o),
(220,1598.156,o),
(220,1590.2,c),
(220,1582.244,o),
(223.161,1574.613,o),
(228.787,1568.987,c),
(234.413,1563.361,o),
(242.044,1560.2,o),
(250,1560.2,c),
(257.956,1560.2,o),
(265.587,1563.361,o),
(271.213,1568.987,c),
(276.839,1574.613,o),
(280,1582.244,o),
(280,1590.2,c)
);
},
{
closed = 1;
nodes = (
(280,1698.956,o),
(276.839,1706.587,o),
(271.213,1712.213,c),
(265.587,1717.839,o),
(257.956,1721,o),
(250,1721,c),
(242.044,1721,o),
(234.413,1717.839,o),
(228.787,1712.213,c),
(223.161,1706.587,o),
(220,1698.956,o),
(220,1691,c),
(220,1683.044,o),
(223.161,1675.413,o),
(228.787,1669.787,c),
(234.413,1664.161,o),
(242.044,1661,o),
(250,1661,c),
(257.956,1661,o),
(265.587,1664.161,o),
(271.213,1669.787,c),
(276.839,1675.413,o),
(280,1683.044,o),
(280,1691,c)
);
},
{
closed = 1;
nodes = (
(372.12,1707.956,o),
(368.959,1715.587,o),
(363.333,1721.213,c),
(357.707,1726.839,o),
(350.076,1730,o),
(342.12,1730,c),
(334.164,1730,o),
(326.533,1726.839,o),
(320.907,1721.213,c),
(315.281,1715.587,o),
(312.12,1707.956,o),
(312.12,1700,c),
(312.12,1692.044,o),
(315.281,1684.413,o),
(320.907,1678.787,c),
(326.533,1673.161,o),
(334.164,1670,o),
(342.12,1670,c),
(350.076,1670,o),
(357.707,1673.161,o),
(363.333,1678.787,c),
(368.959,1684.413,o),
(372.12,1692.044,o),
(372.12,1700,c)
);
},
{
closed = 1;
nodes = (
(473.06,1707.956,o),
(469.899,1715.587,o),
(464.273,1721.213,c),
(458.647,1726.839,o),
(451.016,1730,o),
(443.06,1730,c),
(435.104,1730,o),
(427.473,1726.839,o),
(421.847,1721.213,c),
(416.221,1715.587,o),
(413.06,1707.956,o),
(413.06,1700,c),
(413.06,1692.044,o),
(416.221,1684.413,o),
(421.847,1678.787,c),
(427.473,1673.161,o),
(435.104,1670,o),
(443.06,1670,c),
(451.016,1670,o),
(458.647,1673.161,o),
(464.273,1678.787,c),
(469.899,1684.413,o),
(473.06,1692.044,o),
(473.06,1700,c)
);
},
{
closed = 1;
nodes = (
(574,1707.956,o),
(570.839,1715.587,o),
(565.213,1721.213,c),
(559.587,1726.839,o),
(551.956,1730,o),
(544,1730,c),
(536.044,1730,o),
(528.413,1726.839,o),
(522.787,1721.213,c),
(517.161,1715.587,o),
(514,1707.956,o),
(514,1700,c),
(514,1692.044,o),
(517.161,1684.413,o),
(522.787,1678.787,c),
(528.413,1673.161,o),
(536.044,1670,o),
(544,1670,c),
(551.956,1670,o),
(559.587,1673.161,o),
(565.213,1678.787,c),
(570.839,1684.413,o),
(574,1692.044,o),
(574,1700,c)
);
},
{
closed = 1;
nodes = (
(674.94,1707.956,o),
(671.779,1715.587,o),
(666.153,1721.213,c),
(660.527,1726.839,o),
(652.896,1730,o),
(644.94,1730,c),
(636.984,1730,o),
(629.353,1726.839,o),
(623.727,1721.213,c),
(618.101,1715.587,o),
(614.94,1707.956,o),
(614.94,1700,c),
(614.94,1692.044,o),
(618.101,1684.413,o),
(623.727,1678.787,c),
(629.353,1673.161,o),
(636.984,1670,o),
(644.94,1670,c),
(652.896,1670,o),
(660.527,1673.161,o),
(666.153,1678.787,c),
(671.779,1684.413,o),
(674.94,1692.044,o),
(674.94,1700,c)
);
},
{
closed = 1;
nodes = (
(775.88,1707.956,o),
(772.719,1715.587,o),
(767.093,1721.213,c),
(761.467,1726.839,o),
(753.836,1730,o),
(745.88,1730,c),
(737.924,1730,o),
(730.293,1726.839,o),
(724.667,1721.213,c),
(719.041,1715.587,o),
(715.88,1707.956,o),
(715.88,1700,c),
(715.88,1692.044,o),
(719.041,1684.413,o),
(724.667,1678.787,c),
(730.293,1673.161,o),
(737.924,1670,o),
(745.88,1670,c),
(753.836,1670,o),
(761.467,1673.161,o),
(767.093,1678.787,c),
(772.719,1684.413,o),
(775.88,1692.044,o),
(775.88,1700,c)
);
},
{
closed = 1;
nodes = (
(876.82,1707.956,o),
(873.659,1715.587,o),
(868.033,1721.213,c),
(862.407,1726.839,o),
(854.776,1730,o),
(846.82,1730,c),
(838.864,1730,o),
(831.233,1726.839,o),
(825.607,1721.213,c),
(819.981,1715.587,o),
(816.82,1707.956,o),
(816.82,1700,c),
(816.82,1692.044,o),
(819.981,1684.413,o),
(825.607,1678.787,c),
(831.233,1673.161,o),
(838.864,1670,o),
(846.82,1670,c),
(854.776,1670,o),
(862.407,1673.161,o),
(868.033,1678.787,c),
(873.659,1684.413,o),
(876.82,1692.044,o),
(876.82,1700,c)
);
},
{
closed = 1;
nodes = (
(977.76,1707.956,o),
(974.599,1715.587,o),
(968.973,1721.213,c),
(963.347,1726.839,o),
(955.716,1730,o),
(947.76,1730,c),
(939.804,1730,o),
(932.173,1726.839,o),
(926.547,1721.213,c),
(920.921,1715.587,o),
(917.76,1707.956,o),
(917.76,1700,c),
(917.76,1692.044,o),
(920.921,1684.413,o),
(926.547,1678.787,c),
(932.173,1673.161,o),
(939.804,1670,o),
(947.76,1670,c),
(955.716,1670,o),
(963.347,1673.161,o),
(968.973,1678.787,c),
(974.599,1684.413,o),
(977.76,1692.044,o),
(977.76,1700,c)
);
},
{
closed = 1;
nodes = (
(1078.7,1707.956,o),
(1075.539,1715.587,o),
(1069.913,1721.213,c),
(1064.287,1726.839,o),
(1056.656,1730,o),
(1048.7,1730,c),
(1040.744,1730,o),
(1033.113,1726.839,o),
(1027.487,1721.213,c),
(1021.861,1715.587,o),
(1018.7,1707.956,o),
(1018.7,1700,c),
(1018.7,1692.044,o),
(1021.861,1684.413,o),
(1027.487,1678.787,c),
(1033.113,1673.161,o),
(1040.744,1670,o),
(1048.7,1670,c),
(1056.656,1670,o),
(1064.287,1673.161,o),
(1069.913,1678.787,c),
(1075.539,1684.413,o),
(1078.7,1692.044,o),
(1078.7,1700,c)
);
},
{
closed = 1;
nodes = (
(1179.64,1707.956,o),
(1176.479,1715.587,o),
(1170.853,1721.213,c),
(1165.227,1726.839,o),
(1157.596,1730,o),
(1149.64,1730,c),
(1141.684,1730,o),
(1134.053,1726.839,o),
(1128.427,1721.213,c),
(1122.801,1715.587,o),
(1119.64,1707.956,o),
(1119.64,1700,c),
(1119.64,1692.044,o),
(1122.801,1684.413,o),
(1128.427,1678.787,c),
(1134.053,1673.161,o),
(1141.684,1670,o),
(1149.64,1670,c),
(1157.596,1670,o),
(1165.227,1673.161,o),
(1170.853,1678.787,c),
(1176.479,1684.413,o),
(1179.64,1692.044,o),
(1179.64,1700,c)
);
}
);
visible = 1;
width = 1500;
}
);
unicode = 53;
}
{
glyphname = six;
layers = (
{
background = {
shapes = (
{
closed = 0;
nodes = (
(1219,1400,l),
(1113,1632,o),
(931,1700,o),
(750,1700,cs),
(425,1700,o),
(170,1420,o),
(170,870,cs),
(170,310,o),
(425,0,o),
(750,0,cs),
(1075,0,o),
(1330,310,o),
(1330,870,cs),
(1330,990,o),
(1318,1098,o),
(1295,1192,c)
);
}
);
};
layerId = m01;
shapes = (
{
closed = 0;
nodes = (
(1250,1440,l),
(1144,1632,o),
(971,1700,o),
(770,1700,cs),
(445,1700,o),
(190,1420,o),
(190,870,cs),
(190,310,o),
(445,0,o),
(770,0,cs),
(1095,0,o),
(1280,260,o),
(1280,520,cs),
(1280,780,o),
(1097,1000,o),
(770,1000,cs),
(503,1000,o),
(325,821,o),
(209,600,c)
);
}
);
width = 1500;
}
);
unicode = 54;
}
{
glyphname = seven;
layers = (
{
layerId = m01;
shapes = (
{
closed = 0;
nodes = (
(170,1700,l),
(1330,1700,l,{
co.uk.corvelsoftware.Dotter = {
forced = 1;
};
}),
(550,0,l)
);
}
);
width = 1500;
}
);
unicode = 55;
}
{
glyphname = eight;
layers = (
{
layerId = m01;
shapes = (
{
closed = 0;
nodes = (
(752,900,l),
(484,900,o),
(220,721,o),
(220,450,cs),
(220,155,o),
(472,0,o),
(750,0,cs),
(1029,0,o),
(1280,155,o),
(1280,450,cs),
(1280,721,o),
(1018,900,o),
(750,900,cs)
);
},
{
closed = 0;
nodes = (
(751,1700,l),
(512,1700,o),
(280,1569,o),
(280,1310,cs),
(280,1065,o),
(520,900,o),
(750,900,cs),
(980,900,o),
(1220,1065,o),
(1220,1310,cs),
(1220,1569,o),
(989,1700,o),
(750,1700,cs)
);
}
);
width = 1500;
},
{
layerId = "FDE4885D-BB7A-448A-91AC-7911E70BCCB6";
shapes = (
{
pos = (752,900);
ref = _dot;
},
{
pos = (751,1700);
ref = _dot;
},
{
pos = (561.067,869.539);
ref = _dot;
},
{
pos = (389.699,779.907);
ref = _dot;
},
{
pos = (264.745,633.322);
ref = _dot;
},
{
pos = (220.012,446.467);
ref = _dot;
},
{
pos = (262.055,258.606);
ref = _dot;
},
{
pos = (385.469,110.773);
ref = _dot;
},
{
pos = (558.973,26.137);
ref = _dot;
},
{
pos = (750.837,0);
ref = _dot;
},
{
pos = (942.959,26.577);
ref = _dot;
},
{
pos = (1116.686,112.117);
ref = _dot;
},
{
pos = (1239.062,260.639);
ref = _dot;
},
{
pos = (1279.999,449.115);
ref = _dot;
},
{
pos = (1234.183,635.957);
ref = _dot;
},
{
pos = (1108.315,782.227);
ref = _dot;
},
{
pos = (936.129,870.995);
ref = _dot;
},
{
pos = (569.954,1673.486);
ref = _dot;
},
{
pos = (408.372,1588.391);
ref = _dot;
},
{
pos = (302.396,1440.584);
ref = _dot;
},
{
pos = (283.442,1259.755);
ref = _dot;
},
{
pos = (353.004,1091.727);
ref = _dot;
},
{
pos = (1150.576,1096.641);
ref = _dot;
},
{
pos = (1217.292,1265.373);
ref = _dot;
},
{
pos = (1195.546,1446.264);
ref = _dot;
},
{
pos = (1087.541,1592.113);
ref = _dot;
},
{
pos = (924.929,1675.288);
ref = _dot;
}
);
width = 1500;
}
);
unicode = 56;
}
{
glyphname = nine;
layers = (
{
layerId = m01;
shapes = (
{
closed = 0;
nodes = (
(220,300,l),
(326,88,o),
(529,0,o),
(730,0,cs),
(1055,0,o),
(1310,320,o),
(1310,870,cs),
(1310,1430,o),
(1055,1700,o),
(730,1700,cs),
(405,1700,o),
(220,1440,o),
(220,1180,cs),
(220,920,o),
(403,700,o),
(730,700,cs),
(997,700,o),
(1175,879,o),
(1291,1100,c)
);
}
);
width = 1500;
},
{
layerId = "FDE4885D-BB7A-448A-91AC-7911E70BCCB6";
shapes = (
{
pos = (220,300);
ref = _dot;
},
{
pos = (1291,1100);
ref = _dot;
},
{
pos = (335.666,144.682);
ref = _dot;
},
{
pos = (499.79,42.29);
ref = _dot;
},
{
pos = (689.602,1.196);
ref = _dot;
},
{
pos = (881.652,24.812);
ref = _dot;
},
{
pos = (1048.154,122.856);
ref = _dot;
},
{
pos = (1170.791,273.481);
ref = _dot;
},
{
pos = (1250.175,451.724);
ref = _dot;
},
{
pos = (1293.843,641.206);
ref = _dot;
},
{
pos = (1309.664,835.655);
ref = _dot;
},
{
pos = (1198.916,1405.073);
ref = _dot;
},
{
pos = (1083.116,1561.109);
ref = _dot;
},
{
pos = (920.321,1665.452);
ref = _dot;
},
{
pos = (729.025,1699.999);
ref = _dot;
},
{
pos = (537.876,1665.625);
ref = _dot;
},
{
pos = (375.313,1560.811);
ref = _dot;
},
{
pos = (265.889,1400.573);
ref = _dot;
},
{
pos = (220.93,1211.962);
ref = _dot;
},
{
pos = (244.99,1019.636);
ref = _dot;
},
{
pos = (342.677,852.615);
ref = _dot;
},
{
pos = (501.842,742.687);
ref = _dot;
},
{
pos = (691.454,701.044);
ref = _dot;
},
{
pos = (883.912,721.591);
ref = _dot;
},
{
pos = (1056.512,808.995);
ref = _dot;
},
{
pos = (1193.734,946.567);
ref = _dot;
}
);
width = 1500;
}
);
unicode = 57;
}
{
glyphname = A;
layers = (
{
layerId = m01;
shapes = (
{
closed = 0;
nodes = (
(1330,0,l),
(740,1700,l,{
co.uk.corvelsoftware.Dotter = {
forced = 1;
};
}),
(150,0,l)
);
},
{
closed = 0;
nodes = (
(355,600,l),
(455,600,o),
(1021,600,o),
(1121,600,c)
);
}
);
width = 1480;
},
{
layerId = "FDE4885D-BB7A-448A-91AC-7911E70BCCB6";
shapes = (
{
pos = (1330,0);
ref = _dot;
},
{
pos = (358.27,600.1);
ref = _dot;
},
{
pos = (150,0);
ref = _dot;
},
{
pos = (1121,600);
ref = _dot;
},
{
pos = (1297.55,93.5);
ref = _dot;
},
{
pos = (1265.1,187);
ref = _dot;
},
{
pos = (1232.65,280.5);
ref = _dot;
},
{
pos = (1200.2,374);
ref = _dot;
},
{
pos = (1167.75,467.5);
ref = _dot;
},
{
pos = (1070.4,748);
ref = _dot;
},
{
pos = (1037.95,841.5);
ref = _dot;
},
{
pos = (1005.5,935);
ref = _dot;
},
{
pos = (973.05,1028.5);
ref = _dot;
},
{
pos = (940.6,1122);
ref = _dot;
},
{
pos = (908.15,1215.5);
ref = _dot;
},
{
pos = (875.7,1309);
ref = _dot;
},
{
pos = (843.25,1402.5);
ref = _dot;
},
{
pos = (810.8,1496);
ref = _dot;
},
{
pos = (778.35,1589.5);
ref = _dot;
},
{
pos = (745.9,1683);
ref = _dot;
},
{
pos = (713.279,1623.007);
ref = _dot;
},
{
pos = (680.832,1529.515);
ref = _dot;
},
{
pos = (648.385,1436.024);
ref = _dot;
},
{
pos = (615.938,1342.533);
ref = _dot;
},
{
pos = (583.491,1249.041);
ref = _dot;
},
{
pos = (551.044,1155.55);
ref = _dot;
},
{
pos = (518.597,1062.058);
ref = _dot;
},
{
pos = (486.15,968.566);
ref = _dot;
},
{
pos = (453.702,875.075);
ref = _dot;
},
{
pos = (421.255,781.584);
ref = _dot;
},
{
pos = (388.808,688.092);
ref = _dot;
},
{
pos = (328.487,514.286);
ref = _dot;
},
{
pos = (298.705,428.471);
ref = _dot;
},
{
pos = (268.922,342.657);
ref = _dot;
},
{
pos = (239.14,256.843);
ref = _dot;
},
{
pos = (209.357,171.029);
ref = _dot;
},
{
pos = (179.574,85.214);
ref = _dot;
},
{
pos = (454.044,600);
ref = _dot;
},
{
pos = (550.124,600);
ref = _dot;
},
{
pos = (645.833,600);
ref = _dot;
},
{
pos = (742.006,600);
ref = _dot;
},
{
pos = (837.968,600);
ref = _dot;
},
{
pos = (933.875,600);
ref = _dot;
},
{
pos = (1029.821,600);
ref = _dot;
}
);
width = 1480;
}
);
unicode = 65;
}
{
glyphname = B;
layers = (
{
background = {
shapes = (
{
closed = 0;
nodes = (
(255,1600,l),
(355,1600,o),
(499,1600,o),
(599,1600,cs),
(855,1600,o),
(1100,1507,o),
(1100,1227,cs),
(1100,947,o),
(855,820,o),
(600,820,cs),
(500,820,o),
(355,820,o),
(255,820,c)
);
},
{
closed = 0;
nodes = (
(250,1600,l),
(250,1500,o),
(250,100,o),
(250,0,c)
);
},
{
closed = 0;
nodes = (
(599,780,l),
(855,780,o),
(1100,687,o),
(1100,407,cs),
(1100,127,o),
(855,0,o),
(600,0,cs),
(500,0,o),
(355,0,o),
(255,0,c)
);
}
);
};
layerId = m01;
shapes = (
{
closed = 0;
nodes = (
(255,1700,l),
(355,1700,o),
(539,1700,o),
(639,1700,cs),
(905,1700,o),
(1150,1587,o),
(1150,1307,cs),
(1150,1027,o),
(905,870,o),
(640,870,cs),
(540,870,o),
(355,870,o),
(255,870,c)
);
},
{
closed = 0;
nodes = (
(250,1700,l),
(250,1600,o),
(250,100,o),
(250,0,c)
);
},
{
closed = 0;
nodes = (
(699,870,l),
(965,870,o),
(1210,747,o),
(1210,457,cs),
(1210,167,o),
(995,0,o),
(700,0,cs),
(600,0,o),
(355,0,o),
(255,0,c)
);
}
);
width = 1410;
}
);
unicode = 66;
}
{
glyphname = C;
layers = (
{
layerId = m01;
shapes = (
{
closed = 0;
nodes = (
(1300,1440,l),
(1180,1596,o),
(1030,1700,o),
(760,1700,cs),
(435,1700,o),
(180,1420,o),
(180,870,cs),
(180,320,o),
(435,0,o),
(760,0,cs),
(1010,0,o),
(1195,132,o),
(1310,330,c)
);
}
);
width = 1490;
},
{
layerId = "FDE4885D-BB7A-448A-91AC-7911E70BCCB6";
shapes = (
{
pos = (1300,1440);
ref = _dot;
},
{
pos = (1310,330);
ref = _dot;
},
{
pos = (1168.165,1575.583);
ref = _dot;
},
{
pos = (1001.483,1664.605);
ref = _dot;
},
{
pos = (815.727,1698.446);
ref = _dot;
},
{
pos = (627.219,1683.328);
ref = _dot;
},
{
pos = (457.747,1601.578);
ref = _dot;
},
{
pos = (328.59,1463.766);
ref = _dot;
},
{
pos = (244.675,1294.149);
ref = _dot;
},
{
pos = (198.368,1110.44);
ref = _dot;
},
{
pos = (180.777,921.97);
ref = _dot;
},
{
pos = (185.668,731.732);
ref = _dot;
},
{
pos = (214.439,544.024);
ref = _dot;
},
{
pos = (272.921,364.052);
ref = _dot;
},
{
pos = (368.658,201.038);
ref = _dot;
},
{
pos = (507.525,73.288);
ref = _dot;
},
{
pos = (683.439,6.098);
ref = _dot;
},
{
pos = (872.235,9.386);
ref = _dot;
},
{
pos = (1050.67,70.424);
ref = _dot;
},
{
pos = (1201.182,184.881);
ref = _dot;
}
);
width = 1490;
}
);
unicode = 67;
}
{
glyphname = D;
layers = (
{
background = {
shapes = (
{
closed = 0;
nodes = (
(750,0,l),
(1065,0,o),
(1320,267,o),
(1320,817,cs),
(1320,1367,o),
(1065,1600,o),
(749,1600,cs)
);
},
{
closed = 0;
nodes = (
(250,1600,l),
(250,1500,o),
(250,100,o),
(250,0,c)
);
}
);
};
layerId = m01;
shapes = (
{
closed = 0;
nodes = (
(255,1700,l),
(355,1700,o),
(460,1700,o),
(560,1700,cs),
(1025,1700,o),
(1320,1420,o),
(1320,870,cs),
(1320,320,o),
(1025,0,o),
(560,0,cs),
(460,0,o),
(355,0,o),
(255,0,c)
);
},
{
closed = 0;
nodes = (
(250,1700,l),
(250,1600,o),
(250,100,o),
(250,0,c)
);
}
);
width = 1500;
}
);
unicode = 68;
}
{
glyphname = E;
layers = (
{
layerId = m01;
shapes = (
{
ref = _c.stemLA;
},
{
closed = 0;
nodes = (
(250,900,l,{
co.uk.corvelsoftware.Dotter = {
locally_forced = 1;
};
}),
(350,900,o),
(1030,900,o),
(1130,900,c)
);
},
{
closed = 0;
nodes = (
(250,0,l,{
co.uk.corvelsoftware.Dotter = {
locally_forced = 1;
};
}),
(350,0,o),
(1030,0,o),
(1130,0,c)
);
},
{
closed = 0;
nodes = (
(250,1700,l,{
co.uk.corvelsoftware.Dotter = {
locally_forced = 1;
};
}),
(350,1700,o),
(1030,1700,o),
(1130,1700,c)
);
}
);
width = 1380;
}
);
unicode = 69;
}
{
glyphname = F;
layers = (
{
layerId = m01;
shapes = (
{
ref = _c.stemLA;
},
{
closed = 0;
nodes = (
(250,900,l,{
co.uk.corvelsoftware.Dotter = {
locally_forced = 1;
};
}),
(350,900,o),
(1030,900,o),
(1130,900,c)
);
},
{
closed = 0;
nodes = (
(250,1700,l,{
co.uk.corvelsoftware.Dotter = {
locally_forced = 1;
};
}),
(350,1700,o),
(1030,1700,o),
(1130,1700,c)
);
}
);
width = 1380;
}
);
unicode = 70;
}
{
glyphname = G;
layers = (
{
background = {
shapes = (
{
closed = 0;
nodes = (
(1285,1359,l),
(1165,1515,o),
(1000,1600,o),
(760,1600,cs),
(475,1600,o),
(190,1367,o),
(190,817,cs),
(190,267,o),
(475,0,o),
(760,0,cs),
(1000,0,o),
(1155,105,o),
(1300,293,c)
);
},
{
closed = 0;
nodes = (
(530,600,l),
(630,600,o),
(1150,600,o),
(1250,600,c)
);
}
);
};
layerId = m01;
shapes = (
{
closed = 0;
nodes = (
(1290,1440,l),
(1170,1596,o),
(1030,1700,o),
(760,1700,cs),
(435,1700,o),
(180,1420,o),
(180,870,cs),
(180,320,o),
(435,0,o),
(760,0,cs),
(1085,0,o),
(1310,253,o),
(1310,600,cs),
(1310,650,o),
(1310,750,o),
(1310,800,c)
);
},
{
closed = 0;
nodes = (
(760,800,l),
(860,800,o),
(1200,800,o),
(1300,800,c)
);
}
);
width = 1510;
},
{
layerId = "FDE4885D-BB7A-448A-91AC-7911E70BCCB6";
shapes = (
{
pos = (1290,1440);
ref = _dot;
},
{
pos = (1310,800);
ref = _dot;
},
{
pos = (760,800);
ref = _dot;
},
{
pos = (1157.656,1578.009);
ref = _dot;
},
{
pos = (989.37,1667.703);
ref = _dot;
},
{
pos = (800.31,1699.195);
ref = _dot;
},
{
pos = (610.134,1678.537);
ref = _dot;
},
{
pos = (441.846,1589.186);
ref = _dot;
},
{
pos = (316.331,1444.812);
ref = _dot;
},
{
pos = (236.687,1270.661);
ref = _dot;
},
{
pos = (194.284,1083.673);
ref = _dot;
},
{
pos = (180.129,891.313);
ref = _dot;
},
{
pos = (188.849,698.464);
ref = _dot;
},
{
pos = (222.858,509.787);
ref = _dot;
},
{
pos = (288.995,329.332);
ref = _dot;
},
{
pos = (394.98,169.574);
ref = _dot;
},
{
pos = (545.719,51.413);
ref = _dot;
},
{
pos = (729.982,0.92);
ref = _dot;
},
{
pos = (919.909,22.142);
ref = _dot;
},
{
pos = (1090.614,108.624);
ref = _dot;
},
{
pos = (1218.008,251.596);
ref = _dot;
},
{
pos = (1290.445,429.17);
ref = _dot;
},
{
pos = (1310,619.443);
ref = _dot;
},
{
pos = (940.181,800);
ref = _dot;
},
{
pos = (1120.451,800);
ref = _dot;
}
);
width = 1510;
}
);
unicode = 71;
}
{
glyphname = H;
layers = (
{
layerId = m01;
shapes = (
{
ref = _c.stemLA;
},
{
pos = (1020,0);
ref = _c.stemLA;
},
{
closed = 0;
nodes = (
(250,900,l,{
co.uk.corvelsoftware.Dotter = {
locally_forced = 1;
};
}),
(350,900,o),
(1170,900,o),
(1270,900,c,{
co.uk.corvelsoftware.Dotter = {
locally_forced = 1;
};
})
);
}
);
width = 1520;
},
{
layerId = "FDE4885D-BB7A-448A-91AC-7911E70BCCB6";
shapes = (
{
pos = (250,1700);
ref = _dot;
},
{
pos = (250,0);
ref = _dot;
},
{
pos = (1270,1700);
ref = _dot;
},
{
pos = (1270,0);
ref = _dot;
},
{
pos = (250,900);
ref = _dot;
},
{
pos = (1270,900);
ref = _dot;
},
{
pos = (250,1510.585);
ref = _dot;
},
{
pos = (250,1319.923);
ref = _dot;
},
{
pos = (250,1130.882);
ref = _dot;
},
{
pos = (250,751.793);
ref = _dot;
},
{
pos = (250,562.284);
ref = _dot;
},
{
pos = (250,371.931);
ref = _dot;
},
{
pos = (250,181.516);
ref = _dot;
},
{
pos = (1270,1510.585);
ref = _dot;
},
{
pos = (1270,1319.923);
ref = _dot;
},
{
pos = (1270,1130.882);
ref = _dot;
},
{
pos = (1270,751.793);
ref = _dot;
},
{
pos = (1270,562.284);
ref = _dot;
},
{
pos = (1270,371.931);
ref = _dot;
},
{
pos = (1270,181.516);
ref = _dot;
},
{
pos = (420.022,900);
ref = _dot;
},
{
pos = (590.313,900);
ref = _dot;
},
{
pos = (761.38,900);
ref = _dot;
},
{
pos = (932.31,900);
ref = _dot;
},
{
pos = (1103.19,900);
ref = _dot;
}
);
width = 1520;
}
);
unicode = 72;
}
{
glyphname = I;
layers = (
{
layerId = m01;
shapes = (
{
pos = (500,0);
ref = _c.stemLA;
},
{
closed = 0;
nodes = (
(250,0,l),
(350,0,o),
(1150,0,o),
(1250,0,c)
);
},
{
closed = 0;
nodes = (
(250,1700,l),
(350,1700,o),
(1150,1700,o),
(1250,1700,c)
);
}
);
width = 1500;
},
{
layerId = "FDE4885D-BB7A-448A-91AC-7911E70BCCB6";
shapes = (
{
pos = (750,1700);
ref = _dot;
},
{
pos = (750,0);
ref = _dot;
},
{
pos = (250,0);
ref = _dot;
},
{
pos = (1250,0);
ref = _dot;
},
{
pos = (250,1700);
ref = _dot;
},
{
pos = (1250,1700);
ref = _dot;
},
{
pos = (750,1510.585);
ref = _dot;
},
{
pos = (750,1319.923);
ref = _dot;
},
{
pos = (750,1130.882);
ref = _dot;
},
{
pos = (750,941.046);
ref = _dot;
},
{
pos = (750,751.793);
ref = _dot;
},
{
pos = (750,562.284);
ref = _dot;
},
{
pos = (750,371.931);
ref = _dot;
},
{
pos = (750,181.516);
ref = _dot;
},
{
pos = (417.25,0);
ref = _dot;
},
{
pos = (583.984,0);
ref = _dot;
},
{
pos = (918.582,0);
ref = _dot;
},
{
pos = (1085.899,0);
ref = _dot;
},
{
pos = (417.25,1700);
ref = _dot;
},
{
pos = (583.984,1700);
ref = _dot;
},
{
pos = (918.582,1700);
ref = _dot;
},
{
pos = (1085.899,1700);
ref = _dot;
}
);
width = 1500;
}
);
unicode = 73;
}
{
glyphname = J;
layers = (
{
layerId = m01;
shapes = (
{
closed = 0;
nodes = (
(980,1700,l),
(980,1533,o),
(980,766,o),
(980,600,cs),
(980,140,o),
(768,0,o),
(570,0,cs),
(388,0,o),
(235,140,o),
(180,330,c)
);
}
);
width = 1230;
},
{
layerId = "FDE4885D-BB7A-448A-91AC-7911E70BCCB6";
shapes = (
{
pos = (980,1700);
ref = _dot;
},
{
pos = (180,330);
ref = _dot;
},
{
pos = (980,1509.83);
ref = _dot;
},
{
pos = (980,1319.644);
ref = _dot;
},
{
pos = (980,1128.626);
ref = _dot;
},
{
pos = (980,938.408);
ref = _dot;
},
{
pos = (980,748.322);
ref = _dot;
},
{
pos = (979.396,558.137);
ref = _dot;
},
{
pos = (958.154,369.155);
ref = _dot;
},
{
pos = (893.503,191.48);
ref = _dot;
},
{
pos = (765.207,53.902);
ref = _dot;
},
{
pos = (585.468,0.287);
ref = _dot;
},
{
pos = (402.707,42.009);
ref = _dot;
},
{
pos = (260.645,165.909);
ref = _dot;
}
);
width = 1230;
}
);
unicode = 74;
}
{
glyphname = K;
layers = (
{
layerId = m01;
shapes = (
{
closed = 0;
nodes = (
(1110,1600,l),
(280,820,l),
(1150,0,l)
);
},
{
ref = _c.stemLA;
}
);
width = 1300;
}
);
unicode = 75;
}
{
glyphname = L;
layers = (
{
layerId = m01;
shapes = (
{
ref = _c.stemLA;
},
{
closed = 0;
nodes = (
(250,0,l,{
co.uk.corvelsoftware.Dotter = {
locally_forced = 1;
};
}),
(350,0,o),
(1050,0,o),
(1150,0,c)
);
}
);
width = 1300;
},
{
layerId = "FDE4885D-BB7A-448A-91AC-7911E70BCCB6";
shapes = (
{
pos = (250,1700);
ref = _dot;
},
{
pos = (250,0);
ref = _dot;
},
{
pos = (1150,0);
ref = _dot;
},
{
pos = (250,1599.894);
ref = _dot;
},
{
pos = (250,1499.309);
ref = _dot;
},
{
pos = (250,1398.717);
ref = _dot;
},
{
pos = (250,1297.238);
ref = _dot;
},
{
pos = (250,1196.123);
ref = _dot;
},
{
pos = (250,1094.14);
ref = _dot;
},
{
pos = (250,993.395);
ref = _dot;
},
{
pos = (250,893.184);
ref = _dot;
},
{
pos = (250,792.439);
ref = _dot;
},
{
pos = (250,692.405);
ref = _dot;
},
{
pos = (250,592.026);
ref = _dot;
},
{
pos = (250,490.626);
ref = _dot;
},
{
pos = (250,390.338);
ref = _dot;
},
{
pos = (250,290.008);
ref = _dot;
},
{
pos = (250,189.415);
ref = _dot;
},
{
pos = (250,89.28);
ref = _dot;
},
{
pos = (350.375,0);
ref = _dot;
},
{
pos = (450.832,0);
ref = _dot;
},
{
pos = (551.2,0);
ref = _dot;
},
{
pos = (652.077,0);
ref = _dot;
},
{
pos = (752.698,0);
ref = _dot;
},
{
pos = (853.364,0);
ref = _dot;
},
{
pos = (954.293,0);
ref = _dot;
},
{
pos = (1054.487,0);
ref = _dot;
}
);
width = 1300;
}
);
unicode = 76;
}
{
glyphname = M;
layers = (
{
layerId = m01;
shapes = (
{
ref = _c.stemLA;
},
{
pos = (1380,0);
ref = _c.stemLA;
},
{
closed = 0;
nodes = (
(250,1700,l,{
co.uk.corvelsoftware.Dotter = {
locally_forced = 1;
};
}),
(940,0,l),
(1630,1704,l)
);
}
);
width = 1880;
}
);
unicode = 77;
}
{
glyphname = N;
layers = (
{
layerId = m01;
shapes = (
{
ref = _c.stemLA;
},
{
pos = (1060,0);
ref = _c.stemLA;
},
{
closed = 0;
nodes = (
(250,1700,l,{
co.uk.corvelsoftware.Dotter = {
locally_forced = 1;
};
}),
(1310,0,l,{
co.uk.corvelsoftware.Dotter = {
locally_forced = 1;
};
})
);
}
);
width = 1560;
},
{
layerId = "FDE4885D-BB7A-448A-91AC-7911E70BCCB6";
shapes = (
{
pos = (250,1700);
ref = _dot;
},
{
pos = (250,0);
ref = _dot;
},
{
pos = (1310,1700);
ref = _dot;
},
{
pos = (1310,0);
ref = _dot;
},
{
pos = (250,1599.894);
ref = _dot;
},
{
pos = (250,1499.309);
ref = _dot;
},
{
pos = (250,1398.717);
ref = _dot;
},
{
pos = (250,1297.238);
ref = _dot;
},
{
pos = (250,1196.123);
ref = _dot;
},
{
pos = (250,1094.14);
ref = _dot;
},
{
pos = (250,993.395);
ref = _dot;
},
{
pos = (250,893.184);
ref = _dot;
},
{
pos = (250,792.439);
ref = _dot;
},
{
pos = (250,692.405);
ref = _dot;
},
{
pos = (250,592.026);
ref = _dot;
},
{
pos = (250,490.626);
ref = _dot;
},
{
pos = (250,390.338);
ref = _dot;
},
{
pos = (250,290.008);
ref = _dot;
},
{
pos = (250,189.415);
ref = _dot;
},
{
pos = (250,89.28);
ref = _dot;
},
{
pos = (1310,1599.894);
ref = _dot;
},
{
pos = (1310,1499.309);
ref = _dot;
},
{
pos = (1310,1398.717);
ref = _dot;
},
{
pos = (1310,1297.238);
ref = _dot;
},
{
pos = (1310,1196.123);
ref = _dot;
},
{
pos = (1310,1094.14);
ref = _dot;
},
{
pos = (1310,993.395);
ref = _dot;
},
{
pos = (1310,893.184);
ref = _dot;
},
{
pos = (1310,792.439);
ref = _dot;
},
{
pos = (1310,692.405);
ref = _dot;
},
{
pos = (1310,592.026);
ref = _dot;
},
{
pos = (1310,490.626);
ref = _dot;
},
{
pos = (1310,390.338);
ref = _dot;
},
{
pos = (1310,290.008);
ref = _dot;
},
{
pos = (1310,189.415);
ref = _dot;
},
{
pos = (1310,89.28);
ref = _dot;
},
{
pos = (358.12,1526.6);
ref = _dot;
},
{
pos = (411.12,1441.6);
ref = _dot;
},
{
pos = (465.18,1354.9);
ref = _dot;
},
{
pos = (519.24,1268.2);
ref = _dot;
},
{
pos = (572.24,1183.2);
ref = _dot;
},
{
pos = (626.3,1096.5);
ref = _dot;
},
{
pos = (679.3,1011.5);
ref = _dot;
},
{
pos = (732.3,926.5);
ref = _dot;
},
{
pos = (786.36,839.8);
ref = _dot;
},
{
pos = (840.42,753.1);
ref = _dot;
},
{
pos = (894.48,666.4);
ref = _dot;
},
{
pos = (948.54,579.7);
ref = _dot;
},
{
pos = (1002.6,493);
ref = _dot;
},
{
pos = (1056.66,406.3);
ref = _dot;
},
{
pos = (1110.72,319.6);
ref = _dot;
},
{
pos = (1164.78,232.9);
ref = _dot;
},
{
pos = (1218.84,146.2);
ref = _dot;
}
);
width = 1560;
}
);
unicode = 78;
}
{
glyphname = O;
layers = (
{
layerId = m01;
shapes = (
{
closed = 0;
nodes = (
(762,1700,l),
(437,1700,o),
(180,1420,o),
(180,870,cs),
(180,310,o),
(435,0,o),
(760,0,cs),
(1085,0,o),
(1340,310,o),
(1340,870,cs),
(1340,1420,o),
(1084,1700,o),
(759,1700,cs)
);
}
);
width = 1520;
},
{
layerId = "FDE4885D-BB7A-448A-91AC-7911E70BCCB6";
shapes = (
{
pos = (762,1700);
ref = _dot;
},
{
pos = (574.063,1665.468);
ref = _dot;
},
{
pos = (413.141,1562.883);
ref = _dot;
},
{
pos = (297.116,1410.63);
ref = _dot;
},
{
pos = (225.585,1232.961);
ref = _dot;
},
{
pos = (189.406,1044.625);
ref = _dot;
},
{
pos = (180.092,851.611);
ref = _dot;
},
{
pos = (193.097,659.968);
ref = _dot;
},
{
pos = (232.127,472.256);
ref = _dot;
},
{
pos = (304.527,295.066);
ref = _dot;
},
{
pos = (419.042,141.405);
ref = _dot;
},
{
pos = (578.36,35.275);
ref = _dot;
},
{
pos = (765.842,0.033);
ref = _dot;
},
{
pos = (952.913,40.076);
ref = _dot;
},
{
pos = (1109.566,150.008);
ref = _dot;
},
{
pos = (1221.47,306.257);
ref = _dot;
},
{
pos = (1291.538,484.955);
ref = _dot;
},
{
pos = (1328.59,673.326);
ref = _dot;
},
{
pos = (1339.993,864.967);
ref = _dot;
},
{
pos = (1329.264,1056.319);
ref = _dot;
},
{
pos = (1291.37,1244.068);
ref = _dot;
},
{
pos = (1217.285,1421.3);
ref = _dot;
},
{
pos = (1098.127,1571.525);
ref = _dot;
},
{
pos = (934.618,1670.062);
ref = _dot;
}
);
width = 1520;
}
);
unicode = 79;
}
{
glyphname = P;
layers = (
{
layerId = m01;
shapes = (
{
ref = _c.stemLA;
},
{
closed = 0;
nodes = (
(255,1700,l),
(355,1700,o),
(590,1700,o),
(690,1700,cs),
(955,1700,o),
(1200,1590,o),
(1200,1300,cs),
(1200,1010,o),
(955,870,o),
(690,870,cs),
(590,870,o),
(355,870,o),
(255,870,c)
);
}
);
width = 1380;
},
{
layerId = "FDE4885D-BB7A-448A-91AC-7911E70BCCB6";
shapes = (
{
pos = (250,1700);
ref = _dot;
},
{
pos = (250,870);
ref = _dot;
},
{
pos = (250,0);
ref = _dot;
},
{
pos = (250,1607.638);
ref = _dot;
},
{
pos = (250,1514.814);
ref = _dot;
},
{
pos = (250,1422.555);
ref = _dot;
},
{
pos = (250,1329.501);
ref = _dot;
},
{
pos = (250,1236.539);
ref = _dot;
},
{
pos = (250,1143.415);
ref = _dot;
},
{
pos = (250,1051.027);
ref = _dot;
},
{
pos = (250,958.696);
ref = _dot;
},
{
pos = (250,772.552);
ref = _dot;
},
{
pos = (250,674.671);
ref = _dot;
},
{
pos = (250,577.459);
ref = _dot;
},
{
pos = (250,479.931);
ref = _dot;
},
{
pos = (250,382.905);
ref = _dot;
},
{
pos = (250,286.091);
ref = _dot;
},
{
pos = (250,188.888);
ref = _dot;
},
{
pos = (250,91.916);
ref = _dot;
},
{
pos = (353.358,1700);
ref = _dot;
},
{
pos = (451.415,1700);
ref = _dot;
},
{
pos = (549.865,1700);
ref = _dot;
},
{
pos = (647.862,1700);
ref = _dot;
},
{
pos = (746.062,1698.311);
ref = _dot;
},
{
pos = (843.311,1686.519);
ref = _dot;
},
{
pos = (938.412,1661.306);
ref = _dot;
},
{
pos = (1027.036,1619.835);
ref = _dot;
},
{
pos = (1103.895,1558.903);
ref = _dot;
},
{
pos = (1160.46,1479.286);
ref = _dot;
},
{
pos = (1192.01,1386.236);
ref = _dot;
},
{
pos = (1199.857,1287.908);
ref = _dot;
},
{
pos = (1187.158,1190.727);
ref = _dot;
},
{
pos = (1151.54,1098.968);
ref = _dot;
},
{
pos = (1093.417,1019.778);
ref = _dot;
},
{
pos = (1017.508,957.504);
ref = _dot;
},
{
pos = (930.195,913.064);
ref = _dot;
},
{
pos = (835.844,884.911);
ref = _dot;
},
{
pos = (738.221,871.565);
ref = _dot;
},
{
pos = (640.007,870);
ref = _dot;
},
{
pos = (541.622,870);
ref = _dot;
},
{
pos = (443.408,870);
ref = _dot;
},
{
pos = (345.254,870);
ref = _dot;
}
);
width = 1380;
},
{
associatedMasterId = m01;
layerId = "C983DC4E-904F-4780-99BD-144EC293202C";
name = "Pendot Quick Preview";
shapes = (
{
closed = 1;
nodes = (
(282,1708.487,o),
(278.629,1716.626,o),
(272.627,1722.627,c),
(266.626,1728.629,o),
(258.487,1732,o),
(250,1732,c),
(241.513,1732,o),
(233.374,1728.629,o),
(227.373,1722.627,c),
(221.371,1716.626,o),
(218,1708.487,o),
(218,1700,c),
(218,1691.513,o),
(221.371,1683.374,o),
(227.373,1677.373,c),
(233.374,1671.371,o),
(241.513,1668,o),
(250,1668,c),
(258.487,1668,o),
(266.626,1671.371,o),
(272.627,1677.373,c),
(278.629,1683.374,o),
(282,1691.513,o),
(282,1700,c)
);
},
{
closed = 1;
nodes = (
(282,878.487,o),
(278.629,886.626,o),
(272.627,892.627,c),
(266.626,898.629,o),
(258.487,902,o),
(250,902,c),
(241.513,902,o),
(233.374,898.629,o),
(227.373,892.627,c),
(221.371,886.626,o),
(218,878.487,o),
(218,870,c),
(218,861.513,o),
(221.371,853.374,o),
(227.373,847.373,c),
(233.374,841.371,o),
(241.513,838,o),
(250,838,c),
(258.487,838,o),
(266.626,841.371,o),
(272.627,847.373,c),
(278.629,853.374,o),
(282,861.513,o),
(282,870,c)
);
},
{
closed = 1;
nodes = (
(282,8.487,o),
(278.629,16.626,o),
(272.627,22.627,c),
(266.626,28.629,o),
(258.487,32,o),
(250,32,c),
(241.513,32,o),
(233.374,28.629,o),
(227.373,22.627,c),
(221.371,16.626,o),
(218,8.487,o),
(218,0,c),
(218,-8.487,o),
(221.371,-16.626,o),
(227.373,-22.627,c),
(233.374,-28.629,o),
(241.513,-32,o),
(250,-32,c),
(258.487,-32,o),
(266.626,-28.629,o),
(272.627,-22.627,c),
(278.629,-16.626,o),
(282,-8.487,o),
(282,0,c)
);
},
{
closed = 1;
nodes = (
(282,1616.125,o),
(278.629,1624.264,o),
(272.627,1630.265,c),
(266.626,1636.266,o),
(258.487,1639.638,o),
(250,1639.638,c),
(241.513,1639.638,o),
(233.374,1636.266,o),
(227.373,1630.265,c),
(221.371,1624.264,o),
(218,1616.125,o),
(218,1607.638,c),
(218,1599.151,o),
(221.371,1591.011,o),
(227.373,1585.01,c),
(233.374,1579.009,o),
(241.513,1575.638,o),
(250,1575.638,c),
(258.487,1575.638,o),
(266.626,1579.009,o),
(272.627,1585.01,c),
(278.629,1591.011,o),
(282,1599.151,o),
(282,1607.638,c)
);
},
{
closed = 1;
nodes = (
(282,1523.301,o),
(278.629,1531.441,o),
(272.627,1537.442,c),
(266.626,1543.443,o),
(258.487,1546.814,o),
(250,1546.814,c),
(241.513,1546.814,o),
(233.374,1543.443,o),
(227.373,1537.442,c),
(221.371,1531.441,o),
(218,1523.301,o),
(218,1514.814,c),
(218,1506.328,o),
(221.371,1498.188,o),
(227.373,1492.187,c),
(233.374,1486.186,o),
(241.513,1482.814,o),
(250,1482.814,c),
(258.487,1482.814,o),
(266.626,1486.186,o),
(272.627,1492.187,c),
(278.629,1498.188,o),
(282,1506.328,o),
(282,1514.814,c)
);
},
{
closed = 1;
nodes = (
(282,1431.042,o),
(278.629,1439.181,o),
(272.627,1445.182,c),
(266.626,1451.183,o),
(258.487,1454.555,o),
(250,1454.555,c),
(241.513,1454.555,o),
(233.374,1451.183,o),
(227.373,1445.182,c),
(221.371,1439.181,o),
(218,1431.042,o),
(218,1422.555,c),
(218,1414.068,o),
(221.371,1405.929,o),
(227.373,1399.928,c),
(233.374,1393.926,o),
(241.513,1390.555,o),
(250,1390.555,c),
(258.487,1390.555,o),
(266.626,1393.926,o),
(272.627,1399.928,c),
(278.629,1405.929,o),
(282,1414.068,o),
(282,1422.555,c)
);
},
{
closed = 1;
nodes = (
(282,1337.988,o),
(278.629,1346.128,o),
(272.627,1352.129,c),
(266.626,1358.13,o),
(258.487,1361.501,o),
(250,1361.501,c),
(241.513,1361.501,o),
(233.374,1358.13,o),
(227.373,1352.129,c),
(221.371,1346.128,o),
(218,1337.988,o),
(218,1329.501,c),
(218,1321.014,o),
(221.371,1312.875,o),
(227.373,1306.874,c),
(233.374,1300.873,o),
(241.513,1297.501,o),
(250,1297.501,c),
(258.487,1297.501,o),
(266.626,1300.873,o),
(272.627,1306.874,c),
(278.629,1312.875,o),
(282,1321.014,o),
(282,1329.501,c)
);
},
{
closed = 1;
nodes = (
(282,1245.026,o),
(278.629,1253.165,o),
(272.627,1259.166,c),
(266.626,1265.167,o),
(258.487,1268.539,o),
(250,1268.539,c),
(241.513,1268.539,o),
(233.374,1265.167,o),
(227.373,1259.166,c),
(221.371,1253.165,o),
(218,1245.026,o),
(218,1236.539,c),
(218,1228.052,o),
(221.371,1219.912,o),
(227.373,1213.911,c),
(233.374,1207.91,o),
(241.513,1204.539,o),
(250,1204.539,c),
(258.487,1204.539,o),
(266.626,1207.91,o),
(272.627,1213.911,c),
(278.629,1219.912,o),
(282,1228.052,o),
(282,1236.539,c)
);
},
{
closed = 1;
nodes = (
(282,1151.902,o),
(278.629,1160.042,o),
(272.627,1166.043,c),
(266.626,1172.044,o),
(258.487,1175.415,o),
(250,1175.415,c),
(241.513,1175.415,o),
(233.374,1172.044,o),
(227.373,1166.043,c),
(221.371,1160.042,o),
(218,1151.902,o),
(218,1143.415,c),
(218,1134.929,o),
(221.371,1126.789,o),
(227.373,1120.788,c),
(233.374,1114.787,o),
(241.513,1111.415,o),
(250,1111.415,c),
(258.487,1111.415,o),
(266.626,1114.787,o),
(272.627,1120.788,c),
(278.629,1126.789,o),
(282,1134.929,o),
(282,1143.415,c)
);
},
{
closed = 1;
nodes = (
(282,1059.514,o),
(278.629,1067.653,o),
(272.627,1073.654,c),
(266.626,1079.656,o),
(258.487,1083.027,o),
(250,1083.027,c),
(241.513,1083.027,o),
(233.374,1079.656,o),
(227.373,1073.654,c),
(221.371,1067.653,o),
(218,1059.514,o),
(218,1051.027,c),
(218,1042.54,o),
(221.371,1034.401,o),
(227.373,1028.4,c),
(233.374,1022.398,o),
(241.513,1019.027,o),
(250,1019.027,c),
(258.487,1019.027,o),
(266.626,1022.398,o),
(272.627,1028.4,c),
(278.629,1034.401,o),
(282,1042.54,o),
(282,1051.027,c)
);
},
{
closed = 1;
nodes = (
(282,967.182,o),
(278.629,975.322,o),
(272.627,981.323,c),
(266.626,987.324,o),
(258.487,990.696,o),
(250,990.696,c),
(241.513,990.696,o),
(233.374,987.324,o),
(227.373,981.323,c),
(221.371,975.322,o),
(218,967.182,o),
(218,958.696,c),
(218,950.209,o),
(221.371,942.069,o),
(227.373,936.068,c),
(233.374,930.067,o),
(241.513,926.696,o),
(250,926.696,c),
(258.487,926.696,o),
(266.626,930.067,o),
(272.627,936.068,c),
(278.629,942.069,o),
(282,950.209,o),
(282,958.696,c)
);
},
{
closed = 1;
nodes = (
(282,781.039,o),
(278.629,789.178,o),
(272.627,795.179,c),
(266.626,801.18,o),
(258.487,804.552,o),
(250,804.552,c),
(241.513,804.552,o),
(233.374,801.18,o),
(227.373,795.179,c),
(221.371,789.178,o),
(218,781.039,o),
(218,772.552,c),
(218,764.065,o),
(221.371,755.925,o),
(227.373,749.924,c),
(233.374,743.923,o),
(241.513,740.552,o),
(250,740.552,c),
(258.487,740.552,o),
(266.626,743.923,o),
(272.627,749.924,c),
(278.629,755.925,o),
(282,764.065,o),
(282,772.552,c)
);
},
{
closed = 1;
nodes = (
(282,683.158,o),
(278.629,691.297,o),
(272.627,697.298,c),
(266.626,703.3,o),
(258.487,706.671,o),
(250,706.671,c),
(241.513,706.671,o),
(233.374,703.3,o),
(227.373,697.298,c),
(221.371,691.297,o),
(218,683.158,o),
(218,674.671,c),
(218,666.184,o),
(221.371,658.045,o),
(227.373,652.044,c),
(233.374,646.042,o),
(241.513,642.671,o),
(250,642.671,c),
(258.487,642.671,o),
(266.626,646.042,o),
(272.627,652.044,c),
(278.629,658.045,o),
(282,666.184,o),
(282,674.671,c)
);
},
{
closed = 1;
nodes = (
(282,585.946,o),
(278.629,594.085,o),
(272.627,600.086,c),
(266.626,606.088,o),
(258.487,609.459,o),
(250,609.459,c),
(241.513,609.459,o),
(233.374,606.088,o),
(227.373,600.086,c),
(221.371,594.085,o),
(218,585.946,o),
(218,577.459,c),
(218,568.972,o),
(221.371,560.833,o),
(227.373,554.832,c),
(233.374,548.831,o),
(241.513,545.459,o),
(250,545.459,c),
(258.487,545.459,o),
(266.626,548.831,o),
(272.627,554.832,c),
(278.629,560.833,o),
(282,568.972,o),
(282,577.459,c)
);
},
{
closed = 1;
nodes = (
(282,488.418,o),
(278.629,496.557,o),
(272.627,502.558,c),
(266.626,508.559,o),
(258.487,511.931,o),
(250,511.931,c),
(241.513,511.931,o),
(233.374,508.559,o),
(227.373,502.558,c),
(221.371,496.557,o),
(218,488.418,o),
(218,479.931,c),
(218,471.444,o),
(221.371,463.305,o),
(227.373,457.304,c),
(233.374,451.302,o),
(241.513,447.931,o),
(250,447.931,c),
(258.487,447.931,o),
(266.626,451.302,o),
(272.627,457.304,c),
(278.629,463.305,o),
(282,471.444,o),
(282,479.931,c)
);
},
{
closed = 1;
nodes = (
(282,391.392,o),
(278.629,399.531,o),
(272.627,405.532,c),
(266.626,411.533,o),
(258.487,414.905,o),
(250,414.905,c),
(241.513,414.905,o),
(233.374,411.533,o),
(227.373,405.532,c),
(221.371,399.531,o),
(218,391.392,o),
(218,382.905,c),
(218,374.418,o),
(221.371,366.278,o),
(227.373,360.277,c),
(233.374,354.276,o),
(241.513,350.905,o),
(250,350.905,c),
(258.487,350.905,o),
(266.626,354.276,o),
(272.627,360.277,c),
(278.629,366.278,o),
(282,374.418,o),
(282,382.905,c)
);
},
{
closed = 1;
nodes = (
(282,294.578,o),
(278.629,302.717,o),
(272.627,308.718,c),
(266.626,314.72,o),
(258.487,318.091,o),
(250,318.091,c),
(241.513,318.091,o),
(233.374,314.72,o),
(227.373,308.718,c),
(221.371,302.717,o),
(218,294.578,o),
(218,286.091,c),
(218,277.604,o),
(221.371,269.465,o),
(227.373,263.464,c),
(233.374,257.463,o),
(241.513,254.091,o),
(250,254.091,c),
(258.487,254.091,o),
(266.626,257.463,o),
(272.627,263.464,c),
(278.629,269.465,o),
(282,277.604,o),
(282,286.091,c)
);
},
{
closed = 1;
nodes = (
(282,197.375,o),
(278.629,205.514,o),
(272.627,211.515,c),
(266.626,217.516,o),
(258.487,220.888,o),
(250,220.888,c),
(241.513,220.888,o),
(233.374,217.516,o),
(227.373,211.515,c),
(221.371,205.514,o),
(218,197.375,o),
(218,188.888,c),
(218,180.401,o),
(221.371,172.262,o),
(227.373,166.261,c),
(233.374,160.259,o),
(241.513,156.888,o),
(250,156.888,c),
(258.487,156.888,o),
(266.626,160.259,o),
(272.627,166.261,c),
(278.629,172.262,o),
(282,180.401,o),
(282,188.888,c)
);
},
{
closed = 1;
nodes = (
(282,100.402,o),
(278.629,108.542,o),
(272.627,114.543,c),
(266.626,120.544,o),
(258.487,123.916,o),
(250,123.916,c),
(241.513,123.916,o),
(233.374,120.544,o),
(227.373,114.543,c),
(221.371,108.542,o),
(218,100.402,o),
(218,91.916,c),
(218,83.429,o),
(221.371,75.289,o),
(227.373,69.288,c),
(233.374,63.287,o),
(241.513,59.916,o),
(250,59.916,c),
(258.487,59.916,o),
(266.626,63.287,o),
(272.627,69.288,c),
(278.629,75.289,o),
(282,83.429,o),
(282,91.916,c)
);
},
{
closed = 1;
nodes = (
(385.358,1708.487,o),
(381.987,1716.626,o),
(375.985,1722.627,c),
(369.984,1728.629,o),
(361.845,1732,o),
(353.358,1732,c),
(344.871,1732,o),
(336.732,1728.629,o),
(330.731,1722.627,c),
(324.73,1716.626,o),
(321.358,1708.487,o),
(321.358,1700,c),
(321.358,1691.513,o),
(324.73,1683.374,o),
(330.731,1677.373,c),
(336.732,1671.371,o),
(344.871,1668,o),
(353.358,1668,c),
(361.845,1668,o),
(369.984,1671.371,o),
(375.985,1677.373,c),
(381.987,1683.374,o),
(385.358,1691.513,o),
(385.358,1700,c)
);
},
{
closed = 1;
nodes = (
(483.415,1708.487,o),
(480.044,1716.626,o),
(474.042,1722.627,c),
(468.041,1728.629,o),
(459.902,1732,o),
(451.415,1732,c),
(442.928,1732,o),
(434.789,1728.629,o),
(428.788,1722.627,c),
(422.786,1716.626,o),
(419.415,1708.487,o),
(419.415,1700,c),
(419.415,1691.513,o),
(422.786,1683.374,o),
(428.788,1677.373,c),
(434.789,1671.371,o),
(442.928,1668,o),
(451.415,1668,c),
(459.902,1668,o),
(468.041,1671.371,o),
(474.042,1677.373,c),
(480.044,1683.374,o),
(483.415,1691.513,o),
(483.415,1700,c)
);
},
{
closed = 1;
nodes = (
(581.865,1708.487,o),
(578.494,1716.626,o),
(572.492,1722.627,c),
(566.491,1728.629,o),
(558.352,1732,o),
(549.865,1732,c),
(541.378,1732,o),
(533.239,1728.629,o),
(527.238,1722.627,c),
(521.236,1716.626,o),
(517.865,1708.487,o),
(517.865,1700,c),
(517.865,1691.513,o),
(521.236,1683.374,o),
(527.238,1677.373,c),
(533.239,1671.371,o),
(541.378,1668,o),
(549.865,1668,c),
(558.352,1668,o),
(566.491,1671.371,o),
(572.492,1677.373,c),
(578.494,1683.374,o),
(581.865,1691.513,o),
(581.865,1700,c)
);
},
{
closed = 1;
nodes = (
(679.862,1708.487,o),
(676.491,1716.626,o),
(670.489,1722.627,c),
(664.488,1728.629,o),
(656.349,1732,o),
(647.862,1732,c),
(639.375,1732,o),
(631.236,1728.629,o),
(625.235,1722.627,c),
(619.234,1716.626,o),
(615.862,1708.487,o),
(615.862,1700,c),
(615.862,1691.513,o),
(619.234,1683.374,o),
(625.235,1677.373,c),
(631.236,1671.371,o),
(639.375,1668,o),
(647.862,1668,c),
(656.349,1668,o),
(664.488,1671.371,o),
(670.489,1677.373,c),
(676.491,1683.374,o),
(679.862,1691.513,o),
(679.862,1700,c)
);
},
{
closed = 1;
nodes = (
(778.062,1706.798,o),
(774.691,1714.938,o),
(768.689,1720.939,c),
(762.688,1726.94,o),
(754.549,1730.311,o),
(746.062,1730.311,c),
(737.575,1730.311,o),
(729.436,1726.94,o),
(723.435,1720.939,c),
(717.433,1714.938,o),
(714.062,1706.798,o),
(714.062,1698.311,c),
(714.062,1689.825,o),
(717.433,1681.685,o),
(723.435,1675.684,c),
(729.436,1669.683,o),
(737.575,1666.311,o),
(746.062,1666.311,c),
(754.549,1666.311,o),
(762.688,1669.683,o),
(768.689,1675.684,c),
(774.691,1681.685,o),
(778.062,1689.825,o),
(778.062,1698.311,c)
);
},
{
closed = 1;
nodes = (
(875.311,1695.006,o),
(871.94,1703.146,o),
(865.938,1709.147,c),
(859.937,1715.148,o),
(851.798,1718.519,o),
(843.311,1718.519,c),
(834.824,1718.519,o),
(826.685,1715.148,o),
(820.684,1709.147,c),
(814.683,1703.146,o),
(811.311,1695.006,o),
(811.311,1686.519,c),
(811.311,1678.032,o),
(814.683,1669.893,o),
(820.684,1663.892,c),
(826.685,1657.891,o),
(834.824,1654.519,o),
(843.311,1654.519,c),
(851.798,1654.519,o),
(859.937,1657.891,o),
(865.938,1663.892,c),
(871.94,1669.893,o),
(875.311,1678.032,o),
(875.311,1686.519,c)
);
},
{
closed = 1;
nodes = (
(970.412,1669.793,o),
(967.04,1677.933,o),
(961.039,1683.934,c),
(955.038,1689.935,o),
(946.899,1693.306,o),
(938.412,1693.306,c),
(929.925,1693.306,o),
(921.786,1689.935,o),
(915.785,1683.934,c),
(909.783,1677.933,o),
(906.412,1669.793,o),
(906.412,1661.306,c),
(906.412,1652.819,o),
(909.783,1644.68,o),
(915.785,1638.679,c),
(921.786,1632.678,o),
(929.925,1629.306,o),
(938.412,1629.306,c),
(946.899,1629.306,o),
(955.038,1632.678,o),
(961.039,1638.679,c),
(967.04,1644.68,o),
(970.412,1652.819,o),
(970.412,1661.306,c)
);
},
{
closed = 1;
nodes = (
(1059.036,1628.322,o),
(1055.664,1636.462,o),
(1049.663,1642.463,c),
(1043.662,1648.464,o),
(1035.523,1651.835,o),
(1027.036,1651.835,c),
(1018.549,1651.835,o),
(1010.41,1648.464,o),
(1004.409,1642.463,c),
(998.407,1636.462,o),
(995.036,1628.322,o),
(995.036,1619.835,c),
(995.036,1611.348,o),
(998.407,1603.209,o),
(1004.409,1597.208,c),
(1010.41,1591.207,o),
(1018.549,1587.835,o),
(1027.036,1587.835,c),
(1035.523,1587.835,o),
(1043.662,1591.207,o),
(1049.663,1597.208,c),
(1055.664,1603.209,o),
(1059.036,1611.348,o),
(1059.036,1619.835,c)
);
},
{
closed = 1;
nodes = (
(1135.895,1567.39,o),
(1132.523,1575.529,o),
(1126.522,1581.53,c),
(1120.521,1587.532,o),
(1112.382,1590.903,o),
(1103.895,1590.903,c),
(1095.408,1590.903,o),
(1087.268,1587.532,o),
(1081.267,1581.53,c),
(1075.266,1575.529,o),
(1071.895,1567.39,o),
(1071.895,1558.903,c),
(1071.895,1550.416,o),
(1075.266,1542.277,o),
(1081.267,1536.276,c),
(1087.268,1530.275,o),
(1095.408,1526.903,o),
(1103.895,1526.903,c),
(1112.382,1526.903,o),
(1120.521,1530.275,o),
(1126.522,1536.276,c),
(1132.523,1542.277,o),
(1135.895,1550.416,o),
(1135.895,1558.903,c)
);
},
{
closed = 1;
nodes = (
(1192.46,1487.773,o),
(1189.088,1495.912,o),
(1183.087,1501.913,c),
(1177.086,1507.915,o),
(1168.947,1511.286,o),
(1160.46,1511.286,c),
(1151.973,1511.286,o),
(1143.834,1507.915,o),
(1137.833,1501.913,c),
(1131.831,1495.912,o),
(1128.46,1487.773,o),
(1128.46,1479.286,c),
(1128.46,1470.799,o),
(1131.831,1462.66,o),
(1137.833,1456.659,c),
(1143.834,1450.658,o),
(1151.973,1447.286,o),
(1160.46,1447.286,c),
(1168.947,1447.286,o),
(1177.086,1450.658,o),
(1183.087,1456.659,c),
(1189.088,1462.66,o),
(1192.46,1470.799,o),
(1192.46,1479.286,c)
);
},
{
closed = 1;
nodes = (
(1224.01,1394.723,o),
(1220.638,1402.862,o),
(1214.637,1408.863,c),
(1208.636,1414.865,o),
(1200.496,1418.236,o),
(1192.01,1418.236,c),
(1183.523,1418.236,o),
(1175.383,1414.865,o),
(1169.382,1408.863,c),
(1163.381,1402.862,o),
(1160.01,1394.723,o),
(1160.01,1386.236,c),
(1160.01,1377.749,o),
(1163.381,1369.61,o),
(1169.382,1363.609,c),
(1175.383,1357.607,o),
(1183.523,1354.236,o),
(1192.01,1354.236,c),
(1200.496,1354.236,o),
(1208.636,1357.607,o),
(1214.637,1363.609,c),
(1220.638,1369.61,o),
(1224.01,1377.749,o),
(1224.01,1386.236,c)
);
},
{
closed = 1;
nodes = (
(1231.857,1296.395,o),
(1228.485,1304.534,o),
(1222.484,1310.535,c),
(1216.483,1316.537,o),
(1208.343,1319.908,o),
(1199.857,1319.908,c),
(1191.37,1319.908,o),
(1183.23,1316.537,o),
(1177.229,1310.535,c),
(1171.228,1304.534,o),
(1167.857,1296.395,o),
(1167.857,1287.908,c),
(1167.857,1279.421,o),
(1171.228,1271.282,o),
(1177.229,1265.281,c),
(1183.23,1259.28,o),
(1191.37,1255.908,o),
(1199.857,1255.908,c),
(1208.343,1255.908,o),
(1216.483,1259.28,o),
(1222.484,1265.281,c),
(1228.485,1271.282,o),
(1231.857,1279.421,o),
(1231.857,1287.908,c)
);
},
{
closed = 1;
nodes = (
(1219.158,1199.214,o),
(1215.787,1207.353,o),
(1209.785,1213.354,c),
(1203.784,1219.355,o),
(1195.645,1222.727,o),
(1187.158,1222.727,c),
(1178.671,1222.727,o),
(1170.532,1219.355,o),
(1164.531,1213.354,c),
(1158.53,1207.353,o),
(1155.158,1199.214,o),
(1155.158,1190.727,c),
(1155.158,1182.24,o),
(1158.53,1174.1,o),
(1164.531,1168.099,c),
(1170.532,1162.098,o),
(1178.671,1158.727,o),
(1187.158,1158.727,c),
(1195.645,1158.727,o),
(1203.784,1162.098,o),
(1209.785,1168.099,c),
(1215.787,1174.1,o),
(1219.158,1182.24,o),
(1219.158,1190.727,c)
);
},
{
closed = 1;
nodes = (
(1183.54,1107.455,o),
(1180.169,1115.595,o),
(1174.168,1121.596,c),
(1168.167,1127.597,o),
(1160.027,1130.968,o),
(1151.54,1130.968,c),
(1143.053,1130.968,o),
(1134.914,1127.597,o),
(1128.913,1121.596,c),
(1122.912,1115.595,o),
(1119.54,1107.455,o),
(1119.54,1098.968,c),
(1119.54,1090.481,o),
(1122.912,1082.342,o),
(1128.913,1076.341,c),
(1134.914,1070.34,o),
(1143.053,1066.968,o),
(1151.54,1066.968,c),
(1160.027,1066.968,o),
(1168.167,1070.34,o),
(1174.168,1076.341,c),
(1180.169,1082.342,o),
(1183.54,1090.481,o),
(1183.54,1098.968,c)
);
},
{
closed = 1;
nodes = (
(1125.417,1028.265,o),
(1122.046,1036.404,o),
(1116.044,1042.405,c),
(1110.044,1048.406,o),
(1101.904,1051.778,o),
(1093.417,1051.778,c),
(1084.93,1051.778,o),
(1076.791,1048.406,o),
(1070.79,1042.405,c),
(1064.789,1036.404,o),
(1061.417,1028.265,o),
(1061.417,1019.778,c),
(1061.417,1011.291,o),
(1064.789,1003.152,o),
(1070.79,997.151,c),
(1076.791,991.149,o),
(1084.93,987.778,o),
(1093.417,987.778,c),
(1101.904,987.778,o),
(1110.044,991.149,o),
(1116.044,997.151,c),
(1122.046,1003.152,o),
(1125.417,1011.291,o),
(1125.417,1019.778,c)
);
},
{
closed = 1;
nodes = (
(1049.508,965.991,o),
(1046.137,974.131,o),
(1040.135,980.132,c),
(1034.135,986.133,o),
(1025.995,989.504,o),
(1017.508,989.504,c),
(1009.021,989.504,o),
(1000.882,986.133,o),
(994.881,980.132,c),
(988.88,974.131,o),
(985.508,965.991,o),
(985.508,957.504,c),
(985.508,949.018,o),
(988.88,940.878,o),
(994.881,934.877,c),
(1000.882,928.876,o),
(1009.021,925.504,o),
(1017.508,925.504,c),
(1025.995,925.504,o),
(1034.135,928.876,o),
(1040.135,934.877,c),
(1046.137,940.878,o),
(1049.508,949.018,o),
(1049.508,957.504,c)
);
},
{
closed = 1;
nodes = (
(962.195,921.551,o),
(958.824,929.69,o),
(952.823,935.691,c),
(946.822,941.693,o),
(938.682,945.064,o),
(930.195,945.064,c),
(921.709,945.064,o),
(913.569,941.693,o),
(907.568,935.691,c),
(901.567,929.69,o),
(898.195,921.551,o),
(898.195,913.064,c),
(898.195,904.577,o),
(901.567,896.438,o),
(907.568,890.437,c),
(913.569,884.436,o),
(921.709,881.064,o),
(930.195,881.064,c),
(938.682,881.064,o),
(946.822,884.436,o),
(952.823,890.437,c),
(958.824,896.438,o),
(962.195,904.577,o),
(962.195,913.064,c)
);
},
{
closed = 1;
nodes = (
(867.844,893.398,o),
(864.473,901.537,o),
(858.472,907.538,c),
(852.471,913.54,o),
(844.331,916.911,o),
(835.844,916.911,c),
(827.357,916.911,o),
(819.218,913.54,o),
(813.217,907.538,c),
(807.216,901.537,o),
(803.844,893.398,o),
(803.844,884.911,c),
(803.844,876.424,o),
(807.216,868.285,o),
(813.217,862.284,c),
(819.218,856.282,o),
(827.357,852.911,o),
(835.844,852.911,c),
(844.331,852.911,o),
(852.471,856.282,o),
(858.472,862.284,c),
(864.473,868.285,o),
(867.844,876.424,o),
(867.844,884.911,c)
);
},
{
closed = 1;
nodes = (
(770.221,880.052,o),
(766.849,888.191,o),
(760.848,894.192,c),
(754.847,900.194,o),
(746.708,903.565,o),
(738.221,903.565,c),
(729.734,903.565,o),
(721.594,900.194,o),
(715.593,894.192,c),
(709.592,888.191,o),
(706.221,880.052,o),
(706.221,871.565,c),
(706.221,863.078,o),
(709.592,854.939,o),
(715.593,848.938,c),
(721.594,842.937,o),
(729.734,839.565,o),
(738.221,839.565,c),
(746.708,839.565,o),
(754.847,842.937,o),
(760.848,848.938,c),
(766.849,854.939,o),
(770.221,863.078,o),
(770.221,871.565,c)
);
},
{
closed = 1;
nodes = (
(672.007,878.487,o),
(668.635,886.626,o),
(662.634,892.627,c),
(656.633,898.629,o),
(648.494,902,o),
(640.007,902,c),
(631.52,902,o),
(623.38,898.629,o),
(617.379,892.627,c),
(611.378,886.626,o),
(608.007,878.487,o),
(608.007,870,c),
(608.007,861.513,o),
(611.378,853.374,o),
(617.379,847.373,c),
(623.38,841.371,o),
(631.52,838,o),
(640.007,838,c),
(648.494,838,o),
(656.633,841.371,o),
(662.634,847.373,c),
(668.635,853.374,o),
(672.007,861.513,o),
(672.007,870,c)
);
},
{
closed = 1;
nodes = (
(573.622,878.487,o),
(570.251,886.626,o),
(564.25,892.627,c),
(558.249,898.629,o),
(550.109,902,o),
(541.622,902,c),
(533.135,902,o),
(524.996,898.629,o),
(518.995,892.627,c),
(512.994,886.626,o),
(509.622,878.487,o),
(509.622,870,c),
(509.622,861.513,o),
(512.994,853.374,o),
(518.995,847.373,c),
(524.996,841.371,o),
(533.135,838,o),
(541.622,838,c),
(550.109,838,o),
(558.249,841.371,o),
(564.25,847.373,c),
(570.251,853.374,o),
(573.622,861.513,o),
(573.622,870,c)
);
},
{
closed = 1;
nodes = (
(475.408,878.487,o),
(472.036,886.626,o),
(466.035,892.627,c),
(460.034,898.629,o),
(451.895,902,o),
(443.408,902,c),
(434.921,902,o),
(426.781,898.629,o),
(420.78,892.627,c),
(414.779,886.626,o),
(411.408,878.487,o),
(411.408,870,c),
(411.408,861.513,o),
(414.779,853.374,o),
(420.78,847.373,c),
(426.781,841.371,o),
(434.921,838,o),
(443.408,838,c),
(451.895,838,o),
(460.034,841.371,o),
(466.035,847.373,c),
(472.036,853.374,o),
(475.408,861.513,o),
(475.408,870,c)
);
},
{
closed = 1;
nodes = (
(377.254,878.487,o),
(373.883,886.626,o),
(367.881,892.627,c),
(361.88,898.629,o),
(353.741,902,o),
(345.254,902,c),
(336.767,902,o),
(328.628,898.629,o),
(322.627,892.627,c),
(316.626,886.626,o),
(313.254,878.487,o),
(313.254,870,c),
(313.254,861.513,o),
(316.626,853.374,o),
(322.627,847.373,c),
(328.628,841.371,o),
(336.767,838,o),
(345.254,838,c),
(353.741,838,o),
(361.88,841.371,o),
(367.881,847.373,c),
(373.883,853.374,o),
(377.254,861.513,o),
(377.254,870,c)
);
}
);
visible = 1;
width = 1380;
}
);
unicode = 80;
}
{
glyphname = Q;
layers = (
{
layerId = m01;
shapes = (
{
ref = O;
},
{
closed = 0;
nodes = (
(820,500,l),
(1320,-300,l)
);
}
);
width = 1520;
},
{
layerId = "FDE4885D-BB7A-448A-91AC-7911E70BCCB6";
shapes = (
{
pos = (762,1700);
ref = _dot;
},
{
pos = (1064.547,108.851);
ref = _dot;
},
{
pos = (820,500);
ref = _dot;
},
{
pos = (1320,-300);
ref = _dot;
},
{
pos = (577.543,1666.814);
ref = _dot;
},
{
pos = (418.18,1567.571);
ref = _dot;
},
{
pos = (302.55,1420.339);
ref = _dot;
},
{
pos = (229.525,1246.519);
ref = _dot;
},
{
pos = (191.495,1062.126);
ref = _dot;
},
{
pos = (180.003,873.297);
ref = _dot;
},
{
pos = (190.005,685.306);
ref = _dot;
},
{
pos = (224.229,500.403);
ref = _dot;
},
{
pos = (289.516,323.946);
ref = _dot;
},
{
pos = (393.596,167.954);
ref = _dot;
},
{
pos = (541.496,52.303);
ref = _dot;
},
{
pos = (721.348,1.484);
ref = _dot;
},
{
pos = (906.948,22.616);
ref = _dot;
},
{
pos = (1183.785,242.402);
ref = _dot;
},
{
pos = (1264.379,402.17);
ref = _dot;
},
{
pos = (1313.033,575.13);
ref = _dot;
},
{
pos = (1336.11,753.045);
ref = _dot;
},
{
pos = (1338.843,933.117);
ref = _dot;
},
{
pos = (1321.336,1111.832);
ref = _dot;
},
{
pos = (1277.966,1286.003);
ref = _dot;
},
{
pos = (1201.52,1447.564);
ref = _dot;
},
{
pos = (1084.913,1583.027);
ref = _dot;
},
{
pos = (930.227,1671.623);
ref = _dot;
},
{
pos = (901.663,369.339);
ref = _dot;
},
{
pos = (983.326,238.678);
ref = _dot;
},
{
pos = (1149.837,-27.739);
ref = _dot;
},
{
pos = (1235.174,-164.278);
ref = _dot;
}
);
width = 1520;
}
);
unicode = 81;
}
{
glyphname = R;
layers = (
{
layerId = m01;
shapes = (
{
closed = 0;
nodes = (
(255,1600,l),
(355,1600,o),
(569,1600,o),
(669,1600,cs),
(935,1600,o),
(1130,1507,o),
(1130,1227,cs),
(1130,947,o),
(935,820,o),
(670,820,cs),
(570,820,o),
(355,820,o),
(255,820,c)
);
},
{
closed = 0;
nodes = (
(250,1600,l),
(250,1500,o),
(250,100,o),
(250,0,c)
);
},
{
closed = 0;
nodes = (
(640,815,l),
(1180,0,l)
);
}
);
width = 1360;
}
);
unicode = 82;
}
{
glyphname = S;
layers = (
{
background = {
shapes = (
{
closed = 0;
nodes = (
(1230,1440,l),
(1105,1596,o),
(960,1700,o),
(690,1700,cs),
(376,1700,o),
(237,1508,o),
(237,1305,cs),
(237,1074,o),
(456,973,o),
(700,914,cs),
(973,849,o),
(1261,737,o),
(1261,454,cs),
(1261,206,o),
(1012,0,o),
(730,0,cs),
(503,0,o),
(338,102,o),
(184,300,cs)
);
}
);
};
layerId = m01;
shapes = (
{
closed = 0;
nodes = (
(1230,1440,l),
(1105,1596,o),
(960,1700,o),
(690,1700,cs),
(376,1700,o),
(240,1503,o),
(240,1300,cs),
(240,1069,o),
(456,969,o),
(700,910,cs),
(973,845,o),
(1260,737,o),
(1260,454,cs),
(1260,206,o),
(1012,0,o),
(730,0,cs),
(503,0,o),
(344,102,o),
(190,300,cs)
);
}
);
width = 1390;
},
{
layerId = "FDE4885D-BB7A-448A-91AC-7911E70BCCB6";
shapes = (
{
pos = (1230,1440);
ref = _dot;
},
{
pos = (190,300);
ref = _dot;
},
{
pos = (1097.288,1574.537);
ref = _dot;
},
{
pos = (931.478,1664.209);
ref = _dot;
},
{
pos = (745.657,1698.446);
ref = _dot;
},
{
pos = (557.443,1686.681);
ref = _dot;
},
{
pos = (385.962,1610.293);
ref = _dot;
},
{
pos = (271.728,1462.142);
ref = _dot;
},
{
pos = (240.742,1276.889);
ref = _dot;
},
{
pos = (309.408,1103.996);
ref = _dot;
},
{
pos = (460.341,991.767);
ref = _dot;
},
{
pos = (637.789,926.189);
ref = _dot;
},
{
pos = (821.156,877.886);
ref = _dot;
},
{
pos = (997.881,811.426);
ref = _dot;
},
{
pos = (1154.276,706.018);
ref = _dot;
},
{
pos = (1249.071,544.893);
ref = _dot;
},
{
pos = (1247.343,357.663);
ref = _dot;
},
{
pos = (1159.049,192.162);
ref = _dot;
},
{
pos = (1012.734,73.205);
ref = _dot;
},
{
pos = (835.358,9.632);
ref = _dot;
},
{
pos = (646.674,4.923);
ref = _dot;
},
{
pos = (466.103,57.936);
ref = _dot;
},
{
pos = (311.276,166.021);
ref = _dot;
}
);
width = 1390;
}
);
unicode = 83;
}
{
glyphname = T;
layers = (
{
layerId = m01;
shapes = (
{
pos = (500,0);
ref = _c.stemLA;
},
{
closed = 0;
nodes = (
(170,1700,l),
(270,1700,o),
(1230,1700,o),
(1330,1700,c)
);
}
);
width = 1500;
},
{
layerId = "FDE4885D-BB7A-448A-91AC-7911E70BCCB6";
shapes = (
{
pos = (750,1700);
ref = _dot;
},
{
pos = (750,0);
ref = _dot;
},
{
pos = (170,1700);
ref = _dot;
},
{
pos = (1330,1700);
ref = _dot;
},
{
pos = (750,1599.894);
ref = _dot;
},
{
pos = (750,1499.309);
ref = _dot;
},
{
pos = (750,1398.717);
ref = _dot;
},
{
pos = (750,1297.238);
ref = _dot;
},
{
pos = (750,1196.123);
ref = _dot;
},
{
pos = (750,1094.14);
ref = _dot;
},
{
pos = (750,993.395);
ref = _dot;
},
{
pos = (750,893.184);
ref = _dot;
},
{
pos = (750,792.439);
ref = _dot;
},
{
pos = (750,692.405);
ref = _dot;
},
{
pos = (750,592.026);
ref = _dot;
},
{
pos = (750,490.626);
ref = _dot;
},
{
pos = (750,390.338);
ref = _dot;
},
{
pos = (750,290.008);
ref = _dot;
},
{
pos = (750,189.415);
ref = _dot;
},
{
pos = (750,89.28);
ref = _dot;
},
{
pos = (267.245,1700);
ref = _dot;
},
{
pos = (364.354,1700);
ref = _dot;
},
{
pos = (461.102,1700);
ref = _dot;
},
{
pos = (559.143,1700);
ref = _dot;
},
{
pos = (656.543,1700);
ref = _dot;
},
{
pos = (852.878,1700);
ref = _dot;
},
{
pos = (949.913,1700);
ref = _dot;
},
{
pos = (1047.296,1700);
ref = _dot;
},
{
pos = (1144.23,1700);
ref = _dot;
},
{
pos = (1241.229,1700);
ref = _dot;
}
);
width = 1500;
}
);
unicode = 84;
}
{
glyphname = U;
layers = (
{
layerId = m01;
shapes = (
{
closed = 0;
nodes = (
(250,1700,l),
(250,1600,o),
(250,800,o),
(250,700,cs),
(250,220,o),
(505,0,o),
(820,0,cs),
(1135,0,o),
(1390,220,o),
(1390,700,cs),
(1390,800,o),
(1390,1600,o),
(1390,1700,c)
);
}
);
width = 1640;
}
);
unicode = 85;
}
{
glyphname = V;
layers = (
{
layerId = m01;
shapes = (
{
closed = 0;
nodes = (
(150,1600,l),
(730,0,l),
(1310,1600,l)
);
}
);
width = 1460;
}
);
unicode = 86;
}
{
glyphname = W;
layers = (
{
layerId = m01;
shapes = (
{
closed = 0;
nodes = (
(170,1700,l),
(645,0,l,{
co.uk.corvelsoftware.Dotter = {
forced = 1;
};
}),
(1120,1700,l,{
co.uk.corvelsoftware.Dotter = {
forced = 1;
};
}),
(1595,0,l,{
co.uk.corvelsoftware.Dotter = {
forced = 1;
};
}),
(2070,1700,l)
);
}
);
width = 2240;
}
);
unicode = 87;
}
{
glyphname = X;
layers = (
{
layerId = m01;
shapes = (
{
closed = 0;
nodes = (
(180,1700,l),
(1315,0,l)
);
},
{
closed = 0;
nodes = (
(1285,1700,l),
(150,0,l)
);
}
);
width = 1465;
},
{
layerId = "FDE4885D-BB7A-448A-91AC-7911E70BCCB6";
shapes = (
{
pos = (180,1700);
ref = _dot;
},
{
pos = (732.745,872.1);
ref = _dot;
},
{
pos = (1315,0);
ref = _dot;
},
{
pos = (1285,1700);
ref = _dot;
},
{
pos = (150,0);
ref = _dot;
},
{
pos = (235.827,1616.382);
ref = _dot;
},
{
pos = (291.102,1533.592);
ref = _dot;
},
{
pos = (346.929,1449.974);
ref = _dot;
},
{
pos = (402.756,1366.356);
ref = _dot;
},
{
pos = (458.583,1282.738);
ref = _dot;
},
{
pos = (513.858,1199.948);
ref = _dot;
},
{
pos = (569.685,1116.331);
ref = _dot;
},
{
pos = (625.512,1032.713);
ref = _dot;
},
{
pos = (680.787,949.923);
ref = _dot;
},
{
pos = (785.73,792.739);
ref = _dot;
},
{
pos = (838.715,713.378);
ref = _dot;
},
{
pos = (891.701,634.017);
ref = _dot;
},
{
pos = (944.686,554.656);
ref = _dot;
},
{
pos = (997.671,475.294);
ref = _dot;
},
{
pos = (1050.656,395.933);
ref = _dot;
},
{
pos = (1103.641,316.572);
ref = _dot;
},
{
pos = (1156.627,237.211);
ref = _dot;
},
{
pos = (1209.612,157.85);
ref = _dot;
},
{
pos = (1262.597,78.489);
ref = _dot;
},
{
pos = (1229.173,1616.382);
ref = _dot;
},
{
pos = (1173.898,1533.592);
ref = _dot;
},
{
pos = (1118.071,1449.974);
ref = _dot;
},
{
pos = (1062.244,1366.356);
ref = _dot;
},
{
pos = (1006.969,1283.566);
ref = _dot;
},
{
pos = (951.142,1199.948);
ref = _dot;
},
{
pos = (895.315,1116.331);
ref = _dot;
},
{
pos = (839.488,1032.713);
ref = _dot;
},
{
pos = (784.213,949.923);
ref = _dot;
},
{
pos = (679.27,792.739);
ref = _dot;
},
{
pos = (626.285,713.378);
ref = _dot;
},
{
pos = (573.299,634.017);
ref = _dot;
},
{
pos = (520.314,554.656);
ref = _dot;
},
{
pos = (467.329,475.294);
ref = _dot;
},
{
pos = (414.344,395.933);
ref = _dot;
},
{
pos = (361.359,316.572);
ref = _dot;
},
{
pos = (308.373,237.211);
ref = _dot;
},
{
pos = (255.388,157.85);
ref = _dot;
},
{
pos = (202.403,78.489);
ref = _dot;
}
);
width = 1465;
}
);
unicode = 88;
}
{
glyphname = Y;
layers = (
{
layerId = m01;
shapes = (
{
closed = 0;
nodes = (
(150,1700,l),
(740,800,l),
(1330,1700,l)
);
},
{
closed = 0;
nodes = (
(740,0,l),
(740,100,o),
(740,700,o),
(740,800,cs,{
co.uk.corvelsoftware.Dotter = {
locally_forced = 1;
};
})
);
}
);
width = 1480;
},
{
layerId = "FDE4885D-BB7A-448A-91AC-7911E70BCCB6";
shapes = (
{
pos = (150,1700);
ref = _dot;
},
{
pos = (1330,1700);
ref = _dot;
},
{
pos = (740,0);
ref = _dot;
},
{
pos = (740,800);
ref = _dot;
},
{
pos = (257.38,1536.2);
ref = _dot;
},
{
pos = (364.76,1372.4);
ref = _dot;
},
{
pos = (472.14,1208.6);
ref = _dot;
},
{
pos = (579.52,1044.8);
ref = _dot;
},
{
pos = (901.66,1046.6);
ref = _dot;
},
{
pos = (1009.04,1210.4);
ref = _dot;
},
{
pos = (1116.42,1374.2);
ref = _dot;
},
{
pos = (1223.8,1538);
ref = _dot;
},
{
pos = (740,160.072);
ref = _dot;
},
{
pos = (740,320.639);
ref = _dot;
},
{
pos = (740,481.425);
ref = _dot;
},
{
pos = (740,641.673);
ref = _dot;
}
);
width = 1480;
}
);
unicode = 89;
}
{
glyphname = Z;
layers = (
{
layerId = m01;
shapes = (
{
closed = 0;
nodes = (
(200,1600,l),
(1235,1600,l),
(170,0,l),
(1265,0,l)
);
}
);
width = 1435;
}
);
unicode = 90;
}
{
glyphname = backslash;
layers = (
{
layerId = m01;
shapes = (
{
closed = 0;
nodes = (
(170,1800,l),
(215,1700,o),
(925,0,o),
(970,-100,c)
);
}
);
width = 1140;
},
{
layerId = "FDE4885D-BB7A-448A-91AC-7911E70BCCB6";
shapes = (
{
pos = (170,1800);
ref = _dot;
},
{
pos = (970,-100);
ref = _dot;
},
{
pos = (244.071,1626.002);
ref = _dot;
},
{
pos = (317.49,1451.614);
ref = _dot;
},
{
pos = (390.137,1278.685);
ref = _dot;
},
{
pos = (463.553,1103.756);
ref = _dot;
},
{
pos = (536.061,930.914);
ref = _dot;
},
{
pos = (609.58,755.637);
ref = _dot;
},
{
pos = (683.012,580.597);
ref = _dot;
},
{
pos = (755.991,406.722);
ref = _dot;
},
{
pos = (828.795,233.438);
ref = _dot;
},
{
pos = (902.103,59.366);
ref = _dot;
}
);
width = 1140;
}
);
unicode = 92;
}
{
glyphname = underscore;
layers = (
{
layerId = m01;
shapes = (
{
closed = 0;
nodes = (
(0,-200,l),
(100,-200,o),
(1100,-200,o),
(1200,-200,c)
);
}
);
width = 1200;
}
);
unicode = 95;
}
{
glyphname = c;
layers = (
{
layerId = m01;
shapes = (
{
closed = 0;
nodes = (
(910,815,l),
(830,909,o),
(720,960,o),
(560,960,cs),
(370,960,o),
(180,820,o),
(180,490,cs),
(180,160,o),
(370,0,o),
(560,0,cs),
(720,0,o),
(823,63,o),
(920,176,c)
);
}
);
width = 1090;
}
);
unicode = 99;
}
{
glyphname = e;
layers = (
{
layerId = m01;
shapes = (
{
closed = 0;
nodes = (
(920,180,l),
(823,67,o),
(720,0,o),
(560,0,cs),
(370,0,o),
(180,170,o),
(180,500,cs),
(180,830,o),
(370,1010,o),
(560,1010,cs),
(740,1010,o),
(900,890,o),
(900,630,cs),
(900,580,o),
(900,550,o),
(850,550,cs),
(750,550,o),
(300,550,o),
(200,550,cs)
);
}
);
width = 1110;
}
);
unicode = 101;
}
{
glyphname = f;
layers = (
{
layerId = m01;
shapes = (
{
closed = 0;
nodes = (
(330,0,l),
(330,100,o),
(330,1200,o),
(330,1300,cs),
(330,1630,o),
(485,1700,o),
(610,1700,cs),
(725,1700,o),
(800,1640,o),
(870,1500,c)
);
},
{
closed = 0;
nodes = (
(80,1000,l),
(180,1000,o),
(580,1000,o),
(680,1000,c)
);
}
);
width = 750;
}
);
unicode = 102;
}
{
glyphname = g;
layers = (
{
layerId = m01;
shapes = (
{
closed = 0;
nodes = (
(920,1000,l),
(920,900,o),
(920,60,o),
(920,-40,cs),
(920,-410,o),
(685,-500,o),
(550,-500,cs),
(415,-500,o),
(290,-440,o),
(220,-300,c)
);
},
{
ref = _c.bowlL;
}
);
width = 1150;
}
);
unicode = 103;
}
{
glyphname = i;
layers = (
{
layerId = m01;
shapes = (
{
closed = 0;
nodes = (
(310,0,l),
(310,100,o),
(310,860,o),
(310,960,cs)
);
},
{
ref = dotaccentcomb;
}
);
width = 620;
}
);
unicode = 105;
}
{
glyphname = j;
layers = (
{
layerId = m01;
shapes = (
{
closed = 0;
nodes = (
(310,1000,l),
(310,900,o),
(310,0,o),
(310,-100,cs),
(310,-430,o),
(155,-500,o),
(30,-500,cs),
(-85,-500,o),
(-160,-440,o),
(-230,-300,c)
);
},
{
closed = 0;
nodes = (
(310,1360,l),
(310,1370,l)
);
}
);
width = 620;
}
);
unicode = 106;
}
{
glyphname = k;
layers = (
{
layerId = m01;
shapes = (
{
ref = _c.stemLA;
},
{
closed = 0;
nodes = (
(850,1000,l),
(250,600,l),
(890,0,l)
);
}
);
width = 1020;
},
{
associatedMasterId = m01;
layerId = "F352FFA6-6A73-42B9-95E6-E0ABB41E1D92";
name = "Pendot Quick Preview";
shapes = (
{
closed = 1;
nodes = (
(280,1707.956,o),
(276.839,1715.587,o),
(271.213,1721.213,c),
(265.587,1726.839,o),
(257.956,1730,o),
(250,1730,c),
(242.044,1730,o),
(234.413,1726.839,o),
(228.787,1721.213,c),
(223.161,1715.587,o),
(220,1707.956,o),
(220,1700,c),
(220,1692.044,o),
(223.161,1684.413,o),
(228.787,1678.787,c),
(234.413,1673.161,o),
(242.044,1670,o),
(250,1670,c),
(257.956,1670,o),
(265.587,1673.161,o),
(271.213,1678.787,c),
(276.839,1684.413,o),
(280,1692.044,o),
(280,1700,c)
);
},
{
closed = 1;
nodes = (
(280,7.956,o),
(276.839,15.587,o),
(271.213,21.213,c),
(265.587,26.839,o),
(257.956,30,o),
(250,30,c),
(242.044,30,o),
(234.413,26.839,o),
(228.787,21.213,c),
(223.161,15.587,o),
(220,7.956,o),
(220,0,c),
(220,-7.956,o),
(223.161,-15.587,o),
(228.787,-21.213,c),
(234.413,-26.839,o),
(242.044,-30,o),
(250,-30,c),
(257.956,-30,o),
(265.587,-26.839,o),
(271.213,-21.213,c),
(276.839,-15.587,o),
(280,-7.956,o),
(280,0,c)
);
},
{
closed = 1;
nodes = (
(880,1007.956,o),
(876.839,1015.587,o),
(871.213,1021.213,c),
(865.587,1026.839,o),
(857.956,1030,o),
(850,1030,c),
(842.044,1030,o),
(834.413,1026.839,o),
(828.787,1021.213,c),
(823.161,1015.587,o),
(820,1007.956,o),
(820,1000,c),
(820,992.044,o),
(823.161,984.413,o),
(828.787,978.787,c),
(834.413,973.161,o),
(842.044,970,o),
(850,970,c),
(857.956,970,o),
(865.587,973.161,o),
(871.213,978.787,c),
(876.839,984.413,o),
(880,992.044,o),
(880,1000,c)
);
},
{
closed = 1;
nodes = (
(920,7.956,o),
(916.839,15.587,o),
(911.213,21.213,c),
(905.587,26.839,o),
(897.956,30,o),
(890,30,c),
(882.044,30,o),
(874.413,26.839,o),
(868.787,21.213,c),
(863.161,15.587,o),
(860,7.956,o),
(860,0,c),
(860,-7.956,o),
(863.161,-15.587,o),
(868.787,-21.213,c),
(874.413,-26.839,o),
(882.044,-30,o),
(890,-30,c),
(897.956,-30,o),
(905.587,-26.839,o),
(911.213,-21.213,c),
(916.839,-15.587,o),
(920,-7.956,o),
(920,0,c)
);
},
{
closed = 1;
nodes = (
(280,1607.85,o),
(276.839,1615.481,o),
(271.213,1621.107,c),
(265.587,1626.733,o),
(257.956,1629.894,o),
(250,1629.894,c),
(242.044,1629.894,o),
(234.413,1626.733,o),
(228.787,1621.107,c),
(223.161,1615.481,o),
(220,1607.85,o),
(220,1599.894,c),
(220,1591.937,o),
(223.161,1584.307,o),
(228.787,1578.681,c),
(234.413,1573.054,o),
(242.044,1569.894,o),
(250,1569.894,c),
(257.956,1569.894,o),
(265.587,1573.054,o),
(271.213,1578.681,c),
(276.839,1584.307,o),
(280,1591.937,o),
(280,1599.894,c)
);
},
{
closed = 1;
nodes = (
(280,1507.266,o),
(276.839,1514.896,o),
(271.213,1520.522,c),
(265.587,1526.149,o),
(257.956,1529.309,o),
(250,1529.309,c),
(242.044,1529.309,o),
(234.413,1526.149,o),
(228.787,1520.522,c),
(223.161,1514.896,o),
(220,1507.266,o),
(220,1499.309,c),
(220,1491.353,o),
(223.161,1483.722,o),
(228.787,1478.096,c),
(234.413,1472.47,o),
(242.044,1469.309,o),
(250,1469.309,c),
(257.956,1469.309,o),
(265.587,1472.47,o),
(271.213,1478.096,c),
(276.839,1483.722,o),
(280,1491.353,o),
(280,1499.309,c)
);
},
{
closed = 1;
nodes = (
(280,1406.673,o),
(276.839,1414.304,o),
(271.213,1419.93,c),
(265.587,1425.556,o),
(257.956,1428.717,o),
(250,1428.717,c),
(242.044,1428.717,o),
(234.413,1425.556,o),
(228.787,1419.93,c),
(223.161,1414.304,o),
(220,1406.673,o),
(220,1398.717,c),
(220,1390.76,o),
(223.161,1383.129,o),
(228.787,1377.504,c),
(234.413,1371.877,o),
(242.044,1368.717,o),
(250,1368.717,c),
(257.956,1368.717,o),
(265.587,1371.877,o),
(271.213,1377.504,c),
(276.839,1383.129,o),
(280,1390.76,o),
(280,1398.717,c)
);
},
{
closed = 1;
nodes = (
(280,1305.195,o),
(276.839,1312.825,o),
(271.213,1318.451,c),
(265.587,1324.078,o),
(257.956,1327.238,o),
(250,1327.238,c),
(242.044,1327.238,o),
(234.413,1324.078,o),
(228.787,1318.451,c),
(223.161,1312.825,o),
(220,1305.195,o),
(220,1297.238,c),
(220,1289.282,o),
(223.161,1281.651,o),
(228.787,1276.025,c),
(234.413,1270.399,o),
(242.044,1267.238,o),
(250,1267.238,c),
(257.956,1267.238,o),
(265.587,1270.399,o),
(271.213,1276.025,c),
(276.839,1281.651,o),
(280,1289.282,o),
(280,1297.238,c)
);
},
{
closed = 1;
nodes = (
(280,1204.079,o),
(276.839,1211.71,o),
(271.213,1217.336,c),
(265.587,1222.962,o),
(257.956,1226.123,o),
(250,1226.123,c),
(242.044,1226.123,o),
(234.413,1222.962,o),
(228.787,1217.336,c),
(223.161,1211.71,o),
(220,1204.079,o),
(220,1196.123,c),
(220,1188.167,o),
(223.161,1180.536,o),
(228.787,1174.91,c),
(234.413,1169.284,o),
(242.044,1166.123,o),
(250,1166.123,c),
(257.956,1166.123,o),
(265.587,1169.284,o),
(271.213,1174.91,c),
(276.839,1180.536,o),
(280,1188.167,o),
(280,1196.123,c)
);
},
{
closed = 1;
nodes = (
(280,1102.097,o),
(276.839,1109.727,o),
(271.213,1115.353,c),
(265.587,1120.98,o),
(257.956,1124.14,o),
(250,1124.14,c),
(242.044,1124.14,o),
(234.413,1120.98,o),
(228.787,1115.353,c),
(223.161,1109.727,o),
(220,1102.097,o),
(220,1094.14,c),
(220,1086.184,o),
(223.161,1078.553,o),
(228.787,1072.927,c),
(234.413,1067.301,o),
(242.044,1064.14,o),
(250,1064.14,c),
(257.956,1064.14,o),
(265.587,1067.301,o),
(271.213,1072.927,c),
(276.839,1078.553,o),
(280,1086.184,o),
(280,1094.14,c)
);
},
{
closed = 1;
nodes = (
(280,1001.352,o),
(276.839,1008.982,o),
(271.213,1014.608,c),
(265.587,1020.234,o),
(257.956,1023.395,o),
(250,1023.395,c),
(242.044,1023.395,o),
(234.413,1020.234,o),
(228.787,1014.608,c),
(223.161,1008.982,o),
(220,1001.352,o),
(220,993.395,c),
(220,985.439,o),
(223.161,977.808,o),
(228.787,972.182,c),
(234.413,966.556,o),
(242.044,963.395,o),
(250,963.395,c),
(257.956,963.395,o),
(265.587,966.556,o),
(271.213,972.182,c),
(276.839,977.808,o),
(280,985.439,o),
(280,993.395,c)
);
},
{
closed = 1;
nodes = (
(280,901.14,o),
(276.839,908.771,o),
(271.213,914.397,c),
(265.587,920.023,o),
(257.956,923.184,o),
(250,923.184,c),
(242.044,923.184,o),
(234.413,920.023,o),
(228.787,914.397,c),
(223.161,908.771,o),
(220,901.14,o),
(220,893.184,c),
(220,885.227,o),
(223.161,877.597,o),
(228.787,871.971,c),
(234.413,866.344,o),
(242.044,863.184,o),
(250,863.184,c),
(257.956,863.184,o),
(265.587,866.344,o),
(271.213,871.971,c),
(276.839,877.597,o),
(280,885.227,o),
(280,893.184,c)
);
},
{
closed = 1;
nodes = (
(280,800.395,o),
(276.839,808.026,o),
(271.213,813.652,c),
(265.587,819.278,o),
(257.956,822.439,o),
(250,822.439,c),
(242.044,822.439,o),
(234.413,819.278,o),
(228.787,813.652,c),
(223.161,808.026,o),
(220,800.395,o),
(220,792.439,c),
(220,784.482,o),
(223.161,776.852,o),
(228.787,771.226,c),
(234.413,765.599,o),
(242.044,762.439,o),
(250,762.439,c),
(257.956,762.439,o),
(265.587,765.599,o),
(271.213,771.226,c),
(276.839,776.852,o),
(280,784.482,o),
(280,792.439,c)
);
},
{
closed = 1;
nodes = (
(280,700.361,o),
(276.839,707.992,o),
(271.213,713.618,c),
(265.587,719.244,o),
(257.956,722.405,o),
(250,722.405,c),
(242.044,722.405,o),
(234.413,719.244,o),
(228.787,713.618,c),
(223.161,707.992,o),
(220,700.361,o),
(220,692.405,c),
(220,684.449,o),
(223.161,676.818,o),
(228.787,671.192,c),
(234.413,665.566,o),
(242.044,662.405,o),
(250,662.405,c),
(257.956,662.405,o),
(265.587,665.566,o),
(271.213,671.192,c),
(276.839,676.818,o),
(280,684.449,o),
(280,692.405,c)
);
},
{
closed = 1;
nodes = (
(280,599.983,o),
(276.839,607.613,o),
(271.213,613.239,c),
(265.587,618.865,o),
(257.956,622.026,o),
(250,622.026,c),
(242.044,622.026,o),
(234.413,618.865,o),
(228.787,613.239,c),
(223.161,607.613,o),
(220,599.983,o),
(220,592.026,c),
(220,584.07,o),
(223.161,576.439,o),
(228.787,570.813,c),
(234.413,565.187,o),
(242.044,562.026,o),
(250,562.026,c),
(257.956,562.026,o),
(265.587,565.187,o),
(271.213,570.813,c),
(276.839,576.439,o),
(280,584.07,o),
(280,592.026,c)
);
},
{
closed = 1;
nodes = (
(280,498.583,o),
(276.839,506.213,o),
(271.213,511.839,c),
(265.587,517.466,o),
(257.956,520.626,o),
(250,520.626,c),
(242.044,520.626,o),
(234.413,517.466,o),
(228.787,511.839,c),
(223.161,506.213,o),
(220,498.583,o),
(220,490.626,c),
(220,482.67,o),
(223.161,475.039,o),
(228.787,469.413,c),
(234.413,463.787,o),
(242.044,460.626,o),
(250,460.626,c),
(257.956,460.626,o),
(265.587,463.787,o),
(271.213,469.413,c),
(276.839,475.039,o),
(280,482.67,o),
(280,490.626,c)
);
},
{
closed = 1;
nodes = (
(280,398.294,o),
(276.839,405.925,o),
(271.213,411.551,c),
(265.587,417.177,o),
(257.956,420.338,o),
(250,420.338,c),
(242.044,420.338,o),
(234.413,417.177,o),
(228.787,411.551,c),
(223.161,405.925,o),
(220,398.294,o),
(220,390.338,c),
(220,382.381,o),
(223.161,374.751,o),
(228.787,369.125,c),
(234.413,363.498,o),
(242.044,360.338,o),
(250,360.338,c),
(257.956,360.338,o),
(265.587,363.498,o),
(271.213,369.125,c),
(276.839,374.751,o),
(280,382.381,o),
(280,390.338,c)
);
},
{
closed = 1;
nodes = (
(280,297.965,o),
(276.839,305.596,o),
(271.213,311.221,c),
(265.587,316.848,o),
(257.956,320.008,o),
(250,320.008,c),
(242.044,320.008,o),
(234.413,316.848,o),
(228.787,311.221,c),
(223.161,305.596,o),
(220,297.965,o),
(220,290.008,c),
(220,282.052,o),
(223.161,274.421,o),
(228.787,268.795,c),
(234.413,263.169,o),
(242.044,260.008,o),
(250,260.008,c),
(257.956,260.008,o),
(265.587,263.169,o),
(271.213,268.795,c),
(276.839,274.421,o),
(280,282.052,o),
(280,290.008,c)
);
},
{
closed = 1;
nodes = (
(280,197.371,o),
(276.839,205.002,o),
(271.213,210.628,c),
(265.587,216.254,o),
(257.956,219.415,o),
(250,219.415,c),
(242.044,219.415,o),
(234.413,216.254,o),
(228.787,210.628,c),
(223.161,205.002,o),
(220,197.371,o),
(220,189.415,c),
(220,181.458,o),
(223.161,173.828,o),
(228.787,168.202,c),
(234.413,162.576,o),
(242.044,159.415,o),
(250,159.415,c),
(257.956,159.415,o),
(265.587,162.576,o),
(271.213,168.202,c),
(276.839,173.828,o),
(280,181.458,o),
(280,189.415,c)
);
},
{
closed = 1;
nodes = (
(280,97.237,o),
(276.839,104.867,o),
(271.213,110.493,c),
(265.587,116.12,o),
(257.956,119.28,o),
(250,119.28,c),
(242.044,119.28,o),
(234.413,116.12,o),
(228.787,110.493,c),
(223.161,104.867,o),
(220,97.237,o),
(220,89.28,c),
(220,81.324,o),
(223.161,73.693,o),
(228.787,68.067,c),
(234.413,62.441,o),
(242.044,59.28,o),
(250,59.28,c),
(257.956,59.28,o),
(265.587,62.441,o),
(271.213,68.067,c),
(276.839,73.693,o),
(280,81.324,o),
(280,89.28,c)
);
},
{
closed = 1;
nodes = (
(796.6,952.356,o),
(793.439,959.987,o),
(787.813,965.613,c),
(782.187,971.239,o),
(774.556,974.4,o),
(766.6,974.4,c),
(758.644,974.4,o),
(751.013,971.239,o),
(745.387,965.613,c),
(739.761,959.987,o),
(736.6,952.356,o),
(736.6,944.4,c),
(736.6,936.444,o),
(739.761,928.813,o),
(745.387,923.187,c),
(751.013,917.561,o),
(758.644,914.4,o),
(766.6,914.4,c),
(774.556,914.4,o),
(782.187,917.561,o),
(787.813,923.187,c),
(793.439,928.813,o),
(796.6,936.444,o),
(796.6,944.4,c)
);
},
{
closed = 1;
nodes = (
(713.2,896.756,o),
(710.039,904.387,o),
(704.413,910.013,c),
(698.787,915.639,o),
(691.156,918.8,o),
(683.2,918.8,c),
(675.244,918.8,o),
(667.613,915.639,o),
(661.987,910.013,c),
(656.361,904.387,o),
(653.2,896.756,o),
(653.2,888.8,c),
(653.2,880.844,o),
(656.361,873.213,o),
(661.987,867.587,c),
(667.613,861.961,o),
(675.244,858.8,o),
(683.2,858.8,c),
(691.156,858.8,o),
(698.787,861.961,o),
(704.413,867.587,c),
(710.039,873.213,o),
(713.2,880.844,o),
(713.2,888.8,c)
);
},
{
closed = 1;
nodes = (
(629.8,841.156,o),
(626.639,848.787,o),
(621.013,854.413,c),
(615.387,860.039,o),
(607.756,863.2,o),
(599.8,863.2,c),
(591.844,863.2,o),
(584.213,860.039,o),
(578.587,854.413,c),
(572.961,848.787,o),
(569.8,841.156,o),
(569.8,833.2,c),
(569.8,825.244,o),
(572.961,817.613,o),
(578.587,811.987,c),
(584.213,806.361,o),
(591.844,803.2,o),
(599.8,803.2,c),
(607.756,803.2,o),
(615.387,806.361,o),
(621.013,811.987,c),
(626.639,817.613,o),
(629.8,825.244,o),
(629.8,833.2,c)
);
},
{
closed = 1;
nodes = (
(546.4,785.556,o),
(543.239,793.187,o),
(537.613,798.813,c),
(531.987,804.439,o),
(524.356,807.6,o),
(516.4,807.6,c),
(508.444,807.6,o),
(500.813,804.439,o),
(495.187,798.813,c),
(489.561,793.187,o),
(486.4,785.556,o),
(486.4,777.6,c),
(486.4,769.644,o),
(489.561,762.013,o),
(495.187,756.387,c),
(500.813,750.761,o),
(508.444,747.6,o),
(516.4,747.6,c),
(524.356,747.6,o),
(531.987,750.761,o),
(537.613,756.387,c),
(543.239,762.013,o),
(546.4,769.644,o),
(546.4,777.6,c)
);
},
{
closed = 1;
nodes = (
(463,729.956,o),
(459.839,737.587,o),
(454.213,743.213,c),
(448.587,748.839,o),
(440.956,752,o),
(433,752,c),
(425.044,752,o),
(417.413,748.839,o),
(411.787,743.213,c),
(406.161,737.587,o),
(403,729.956,o),
(403,722,c),
(403,714.044,o),
(406.161,706.413,o),
(411.787,700.787,c),
(417.413,695.161,o),
(425.044,692,o),
(433,692,c),
(440.956,692,o),
(448.587,695.161,o),
(454.213,700.787,c),
(459.839,706.413,o),
(463,714.044,o),
(463,722,c)
);
},
{
closed = 1;
nodes = (
(379.6,674.356,o),
(376.439,681.987,o),
(370.813,687.613,c),
(365.187,693.239,o),
(357.556,696.4,o),
(349.6,696.4,c),
(341.644,696.4,o),
(334.013,693.239,o),
(328.387,687.613,c),
(322.761,681.987,o),
(319.6,674.356,o),
(319.6,666.4,c),
(319.6,658.444,o),
(322.761,650.813,o),
(328.387,645.187,c),
(334.013,639.561,o),
(341.644,636.4,o),
(349.6,636.4,c),
(357.556,636.4,o),
(365.187,639.561,o),
(370.813,645.187,c),
(376.439,650.813,o),
(379.6,658.444,o),
(379.6,666.4,c)
);
},
{
closed = 1;
nodes = (
(338.88,552.756,o),
(335.719,560.387,o),
(330.093,566.013,c),
(324.467,571.639,o),
(316.836,574.8,o),
(308.88,574.8,c),
(300.924,574.8,o),
(293.293,571.639,o),
(287.667,566.013,c),
(282.041,560.387,o),
(278.88,552.756,o),
(278.88,544.8,c),
(278.88,536.844,o),
(282.041,529.213,o),
(287.667,523.587,c),
(293.293,517.961,o),
(300.924,514.8,o),
(308.88,514.8,c),
(316.836,514.8,o),
(324.467,517.961,o),
(330.093,523.587,c),
(335.719,529.213,o),
(338.88,536.844,o),
(338.88,544.8,c)
);
},
{
closed = 1;
nodes = (
(411.84,484.356,o),
(408.679,491.987,o),
(403.053,497.613,c),
(397.427,503.239,o),
(389.796,506.4,o),
(381.84,506.4,c),
(373.884,506.4,o),
(366.253,503.239,o),
(360.627,497.613,c),
(355,491.987,o),
(351.84,484.356,o),
(351.84,476.4,c),
(351.84,468.444,o),
(355,460.813,o),
(360.627,455.187,c),
(366.253,449.561,o),
(373.884,446.4,o),
(381.84,446.4,c),
(389.796,446.4,o),
(397.427,449.561,o),
(403.053,455.187,c),
(408.679,460.813,o),
(411.84,468.444,o),
(411.84,476.4,c)
);
},
{
closed = 1;
nodes = (
(484.8,415.956,o),
(481.639,423.587,o),
(476.013,429.213,c),
(470.387,434.839,o),
(462.756,438,o),
(454.8,438,c),
(446.844,438,o),
(439.213,434.839,o),
(433.587,429.213,c),
(427.961,423.587,o),
(424.8,415.956,o),
(424.8,408,c),
(424.8,400.044,o),
(427.961,392.413,o),
(433.587,386.787,c),
(439.213,381.161,o),
(446.844,378,o),
(454.8,378,c),
(462.756,378,o),
(470.387,381.161,o),
(476.013,386.787,c),
(481.639,392.413,o),
(484.8,400.044,o),
(484.8,408,c)
);
},
{
closed = 1;
nodes = (
(557.76,347.556,o),
(554.599,355.187,o),
(548.973,360.813,c),
(543.347,366.439,o),
(535.716,369.6,o),
(527.76,369.6,c),
(519.804,369.6,o),
(512.173,366.439,o),
(506.547,360.813,c),
(500.921,355.187,o),
(497.76,347.556,o),
(497.76,339.6,c),
(497.76,331.644,o),
(500.921,324.013,o),
(506.547,318.387,c),
(512.173,312.761,o),
(519.804,309.6,o),
(527.76,309.6,c),
(535.716,309.6,o),
(543.347,312.761,o),
(548.973,318.387,c),
(554.599,324.013,o),
(557.76,331.644,o),
(557.76,339.6,c)
);
},
{
closed = 1;
nodes = (
(630.72,279.156,o),
(627.559,286.787,o),
(621.933,292.413,c),
(616.307,298.039,o),
(608.676,301.2,o),
(600.72,301.2,c),
(592.764,301.2,o),
(585.133,298.039,o),
(579.507,292.413,c),
(573.881,286.787,o),
(570.72,279.156,o),
(570.72,271.2,c),
(570.72,263.244,o),
(573.881,255.613,o),
(579.507,249.987,c),
(585.133,244.361,o),
(592.764,241.2,o),
(600.72,241.2,c),
(608.676,241.2,o),
(616.307,244.361,o),
(621.933,249.987,c),
(627.559,255.613,o),
(630.72,263.244,o),
(630.72,271.2,c)
);
},
{
closed = 1;
nodes = (
(703.68,210.756,o),
(700.519,218.387,o),
(694.893,224.013,c),
(689.267,229.639,o),
(681.636,232.8,o),
(673.68,232.8,c),
(665.724,232.8,o),
(658.093,229.639,o),
(652.467,224.013,c),
(646.841,218.387,o),
(643.68,210.756,o),
(643.68,202.8,c),
(643.68,194.844,o),
(646.841,187.213,o),
(652.467,181.587,c),
(658.093,175.961,o),
(665.724,172.8,o),
(673.68,172.8,c),
(681.636,172.8,o),
(689.267,175.961,o),
(694.893,181.587,c),
(700.519,187.213,o),
(703.68,194.844,o),
(703.68,202.8,c)
);
},
{
closed = 1;
nodes = (
(776.64,142.356,o),
(773.479,149.987,o),
(767.853,155.613,c),
(762.227,161.239,o),
(754.596,164.4,o),
(746.64,164.4,c),
(738.684,164.4,o),
(731.053,161.239,o),
(725.427,155.613,c),
(719.801,149.987,o),
(716.64,142.356,o),
(716.64,134.4,c),
(716.64,126.444,o),
(719.801,118.813,o),
(725.427,113.187,c),
(731.053,107.561,o),
(738.684,104.4,o),
(746.64,104.4,c),
(754.596,104.4,o),
(762.227,107.561,o),
(767.853,113.187,c),
(773.479,118.813,o),
(776.64,126.444,o),
(776.64,134.4,c)
);
},
{
closed = 1;
nodes = (
(849.6,73.956,o),
(846.439,81.587,o),
(840.813,87.213,c),
(835.187,92.839,o),
(827.556,96,o),
(819.6,96,c),
(811.644,96,o),
(804.013,92.839,o),
(798.387,87.213,c),
(792.761,81.587,o),
(789.6,73.956,o),
(789.6,66,c),
(789.6,58.044,o),
(792.761,50.413,o),
(798.387,44.787,c),
(804.013,39.161,o),
(811.644,36,o),
(819.6,36,c),
(827.556,36,o),
(835.187,39.161,o),
(840.813,44.787,c),
(846.439,50.413,o),
(849.6,58.044,o),
(849.6,66,c)
);
}
);
visible = 1;
width = 1020;
},
{
layerId = "FDE4885D-BB7A-448A-91AC-7911E70BCCB6";
shapes = (
{
pos = (250,1700);
ref = _dot;
},
{
pos = (250,0);
ref = _dot;
},
{
pos = (850,1000);
ref = _dot;
},
{
pos = (890,0);
ref = _dot;
},
{
pos = (250,1510.585);
ref = _dot;
},
{
pos = (250,1319.923);
ref = _dot;
},
{
pos = (250,1130.882);
ref = _dot;
},
{
pos = (250,941.046);
ref = _dot;
},
{
pos = (250,751.793);
ref = _dot;
},
{
pos = (250,562.284);
ref = _dot;
},
{
pos = (250,371.931);
ref = _dot;
},
{
pos = (250,181.516);
ref = _dot;
},
{
pos = (701.8,901.2);
ref = _dot;
},
{
pos = (553.6,802.4);
ref = _dot;
},
{
pos = (405.4,703.6);
ref = _dot;
},
{
pos = (373.52,484.2);
ref = _dot;
},
{
pos = (503.44,362.4);
ref = _dot;
},
{
pos = (633.36,240.6);
ref = _dot;
},
{
pos = (763.28,118.8);
ref = _dot;
}
);
width = 1020;
}
);
unicode = 107;
}
{
glyphname = m;
layers = (
{
layerId = m01;
shapes = (
{
closed = 0;
nodes = (
(850,0,l),
(850,100,o),
(850,500,o),
(850,600,cs),
(850,900,o),
(785,1000,o),
(630,1000,cs),
(490,1000,o),
(338,895,o),
(250,600,c)
);
},
{
closed = 0;
nodes = (
(1450,0,l),
(1450,100,o),
(1450,500,o),
(1450,600,cs),
(1450,900,o),
(1385,1000,o),
(1230,1000,cs),
(1090,1000,o),
(938,895,o),
(850,600,c)
);
},
{
ref = _c.stemL;
}
);
width = 1675;
}
);
unicode = 109;
}
{
glyphname = o;
layers = (
{
layerId = m01;
shapes = (
{
closed = 0;
nodes = (
(561,1000,l),
(351,1000,o),
(180,830,o),
(180,500,cs),
(180,170,o),
(350,0,o),
(560,0,cs),
(770,0,o),
(940,170,o),
(940,500,cs),
(940,830,o),
(769,1000,o),
(559,1000,cs)
);
}
);
width = 1120;
}
);
unicode = 111;
}
{
glyphname = q;
layers = (
{
layerId = m01;
shapes = (
{
closed = 0;
nodes = (
(920,1000,l),
(920,900,o),
(920,0,o),
(920,-100,cs),
(920,-280,o),
(935,-400,o),
(960,-500,cs)
);
},
{
ref = _c.bowlL;
}
);
width = 1150;
}
);
unicode = 113;
}
{
glyphname = r;
layers = (
{
layerId = m01;
shapes = (
{
closed = 0;
nodes = (
(870,700,l),
(870,880,o),
(780,1000,o),
(640,1000,cs),
(500,1000,o),
(358,895,o),
(250,600,c)
);
},
{
ref = _c.stemL;
}
);
width = 970;
}
);
unicode = 114;
}
{
glyphname = s;
layers = (
{
layerId = m01;
shapes = (
{
closed = 0;
nodes = (
(850,815,l),
(770,909,o),
(660,960,o),
(500,960,cs),
(300,960,o),
(210,851,o),
(210,736,cs),
(210,606,o),
(354,549,o),
(510,516,cs),
(684,479,o),
(870,416,o),
(870,256,cs),
(870,116,o),
(710,0,o),
(530,0,cs),
(385,0,o),
(287,43,o),
(170,155,cs)
);
}
);
width = 1040;
}
);
unicode = 115;
}
{
glyphname = t;
layers = (
{
layerId = m01;
shapes = (
{
closed = 0;
nodes = (
(330,1360,l),
(330,1260,o),
(330,420,o),
(330,320,cs),
(330,50,o),
(425,0,o),
(515,0,cs),
(595,0,o),
(665,35,o),
(730,120,c)
);
},
{
closed = 0;
nodes = (
(80,960,l),
(180,960,o),
(580,960,o),
(680,960,c)
);
}
);
width = 830;
}
);
unicode = 116;
}
{
glyphname = u;
layers = (
{
layerId = m01;
shapes = (
{
closed = 0;
nodes = (
(250,960,l),
(250,860,o),
(250,510,o),
(250,410,cs),
(250,110,o),
(355,0,o),
(530,0,cs),
(700,0,o),
(852,115,o),
(960,410,c)
);
},
{
pos = (710,0);
ref = _c.stemR;
}
);
width = 1210;
}
);
unicode = 117;
}
{
glyphname = v;
layers = (
{
layerId = m01;
shapes = (
{
closed = 0;
nodes = (
(150,1000,l),
(550,0,l),
(950,1000,l)
);
}
);
width = 1100;
}
);
unicode = 118;
}
{
glyphname = w;
layers = (
{
layerId = m01;
shapes = (
{
closed = 0;
nodes = (
(150,1000,l),
(470,0,l),
(790,1000,l),
(1110,0,l),
(1430,1000,l)
);
}
);
width = 1580;
}
);
unicode = 119;
}
{
glyphname = x;
layers = (
{
layerId = m01;
shapes = (
{
closed = 0;
nodes = (
(170,960,l),
(900,0,l)
);
},
{
closed = 0;
nodes = (
(880,960,l),
(150,0,l)
);
}
);
width = 1050;
}
);
unicode = 120;
}
{
glyphname = y;
layers = (
{
layerId = m01;
shapes = (
{
closed = 0;
nodes = (
(940,1000,l),
(610,0,ls),
(478,-399,o),
(402,-500,o),
(277,-500,cs),
(152,-500,o),
(100,-410,o),
(60,-300,c)
);
},
{
closed = 0;
nodes = (
(120,1000,l),
(610,0,l,{
co.uk.corvelsoftware.Dotter = {
locally_forced = 1;
};
})
);
}
);
width = 1060;
}
);
unicode = 121;
}
{
glyphname = z;
layers = (
{
layerId = m01;
shapes = (
{
closed = 0;
nodes = (
(190,1000,l),
(920,1000,l),
(170,0,l),
(940,0,l)
);
}
);
width = 1110;
}
);
unicode = 122;
}
{
glyphname = dotaccentcomb;
layers = (
{
layerId = m01;
shapes = (
{
closed = 0;
nodes = (
(310,1360,l),
(310,1370,l)
);
}
);
width = 620;
}
);
unicode = 775;
}
{
glyphname = quoteright;
layers = (
{
layerId = m01;
shapes = (
{
closed = 0;
nodes = (
(250,1700,l),
(359,1671,o),
(410,1598,o),
(410,1500,cs),
(410,1398,o),
(354,1291,o),
(250,1200,c)
);
}
);
width = 660;
},
{
layerId = "FDE4885D-BB7A-448A-91AC-7911E70BCCB6";
shapes = (
{
pos = (250,1700);
ref = _dot;
},
{
pos = (250,1200);
ref = _dot;
},
{
pos = (331.728,1663.175);
ref = _dot;
},
{
pos = (389.732,1595.466);
ref = _dot;
},
{
pos = (409.871,1508.462);
ref = _dot;
},
{
pos = (398.698,1419.486);
ref = _dot;
},
{
pos = (364,1336.733);
ref = _dot;
},
{
pos = (312.326,1263.033);
ref = _dot;
}
);
width = 660;
}
);
unicode = 8217;
}
{
glyphname = bullet;
layers = (
{
layerId = m01;
shapes = (
{
closed = 0;
nodes = (
(461,1000,l),
(378,1000,o),
(310,932,o),
(310,850,cs),
(310,768,o),
(378,700,o),
(460,700,cs),
(542,700,o),
(610,768,o),
(610,850,cs),
(610,932,o),
(542,1000,o),
(459,1000,c)
);
}
);
width = 920;
}
);
unicode = 8226;
}
{
export = 0;
glyphname = _c.arch;
layers = (
{
background = {
shapes = (
{
closed = 0;
nodes = (
(960,0,l),
(960,100,o),
(960,500,o),
(960,600,cs),
(960,900,o),
(855,1000,o),
(680,1000,cs),
(510,1000,o),
(358,895,o),
(250,600,c)
);
}
);
};
layerId = m01;
shapes = (
{
closed = 0;
nodes = (
(960,0,l),
(960,100,o),
(960,500,o),
(960,600,cs),
(960,900,o),
(855,1000,o),
(680,1000,cs),
(510,1000,o),
(360,890,o),
(250,500,c)
);
}
);
width = 1185;
}
);
}
{
export = 0;
glyphname = _c.bowlL;
layers = (
{
layerId = m01;
shapes = (
{
closed = 0;
nodes = (
(920,570,l),
(887,812,o),
(720,960,o),
(550,960,cs),
(340,960,o),
(180,800,o),
(180,490,cs),
(180,160,o),
(325,0,o),
(520,0,cs),
(695,0,o),
(882,215,o),
(920,450,c)
);
}
);
width = 1170;
}
);
}
{
export = 0;
glyphname = _c.bowlR;
layers = (
{
background = {
shapes = (
{
closed = 0;
nodes = (
(250,500,l),
(278,775,o),
(455,1000,o),
(650,1000,cs),
(845,1000,o),
(990,850,o),
(990,500,cs),
(990,180,o),
(810,0,o),
(600,0,cs),
(430,0,o),
(283,160,o),
(250,400,cs)
);
}
);
};
layerId = m01;
shapes = (
{
closed = 0;
nodes = (
(250,500,l),
(278,775,o),
(455,1000,o),
(650,1000,cs),
(845,1000,o),
(990,850,o),
(990,500,cs),
(990,180,o),
(810,0,o),
(600,0,cs),
(430,0,o),
(283,155,o),
(250,495,cs)
);
}
);
width = 1170;
},
{
layerId = "FDE4885D-BB7A-448A-91AC-7911E70BCCB6";
shapes = (
{
pos = (250,500);
ref = _dot;
},
{
pos = (291.104,678.957);
ref = _dot;
},
{
pos = (377.556,840.403);
ref = _dot;
},
{
pos = (512.913,962.653);
ref = _dot;
},
{
pos = (690.182,997.778);
ref = _dot;
},
{
pos = (854.758,924.03);
ref = _dot;
},
{
pos = (951.027,769.33);
ref = _dot;
},
{
pos = (986.546,589.676);
ref = _dot;
},
{
pos = (984.541,406.492);
ref = _dot;
},
{
pos = (936.277,229.706);
ref = _dot;
},
{
pos = (827.514,83.428);
ref = _dot;
},
{
pos = (663.164,5.576);
ref = _dot;
},
{
pos = (483.755,26.744);
ref = _dot;
},
{
pos = (352.019,151.092);
ref = _dot;
},
{
pos = (280.751,320.218);
ref = _dot;
}
);
width = 1170;
}
);
}
{
export = 0;
glyphname = _c.stemL;
layers = (
{
layerId = m01;
shapes = (
{
closed = 0;
nodes = (
(250,0,l),
(250,100,o),
(250,450,o),
(250,550,cs),
(250,730,o),
(235,860,o),
(210,960,cs)
);
}
);
width = 500;
}
);
}
{
export = 0;
glyphname = _c.stemLA;
layers = (
{
layerId = m01;
shapes = (
{
closed = 0;
nodes = (
(250,1700,l),
(250,1600,o),
(250,100,o),
(250,0,c)
);
}
);
width = 500;
},
{
layerId = "FDE4885D-BB7A-448A-91AC-7911E70BCCB6";
shapes = (
{
pos = (250,1700);
ref = _dot;
},
{
pos = (250,0);
ref = _dot;
},
{
pos = (250,1510.585);
ref = _dot;
},
{
pos = (250,1319.923);
ref = _dot;
},
{
pos = (250,1130.882);
ref = _dot;
},
{
pos = (250,941.046);
ref = _dot;
},
{
pos = (250,751.793);
ref = _dot;
},
{
pos = (250,562.284);
ref = _dot;
},
{
pos = (250,371.931);
ref = _dot;
},
{
pos = (250,181.516);
ref = _dot;
}
);
width = 500;
},
{
associatedMasterId = m01;
layerId = "14C2B908-F7C7-41B0-A4FC-3BA0CA415886";
name = "Pendot Quick Preview";
shapes = (
{
closed = 1;
nodes = (
(280,1707.956,o),
(276.839,1715.587,o),
(271.213,1721.213,c),
(265.587,1726.839,o),
(257.956,1730,o),
(250,1730,c),
(242.044,1730,o),
(234.413,1726.839,o),
(228.787,1721.213,c),
(223.161,1715.587,o),
(220,1707.956,o),
(220,1700,c),
(220,1692.044,o),
(223.161,1684.413,o),
(228.787,1678.787,c),
(234.413,1673.161,o),
(242.044,1670,o),
(250,1670,c),
(257.956,1670,o),
(265.587,1673.161,o),
(271.213,1678.787,c),
(276.839,1684.413,o),
(280,1692.044,o),
(280,1700,c)
);
},
{
closed = 1;
nodes = (
(280,7.956,o),
(276.839,15.587,o),
(271.213,21.213,c),
(265.587,26.839,o),
(257.956,30,o),
(250,30,c),
(242.044,30,o),
(234.413,26.839,o),
(228.787,21.213,c),
(223.161,15.587,o),
(220,7.956,o),
(220,0,c),
(220,-7.956,o),
(223.161,-15.587,o),
(228.787,-21.213,c),
(234.413,-26.839,o),
(242.044,-30,o),
(250,-30,c),
(257.956,-30,o),
(265.587,-26.839,o),
(271.213,-21.213,c),
(276.839,-15.587,o),
(280,-7.956,o),
(280,0,c)
);
},
{
closed = 1;
nodes = (
(280,1607.85,o),
(276.839,1615.481,o),
(271.213,1621.107,c),
(265.587,1626.733,o),
(257.956,1629.894,o),
(250,1629.894,c),
(242.044,1629.894,o),
(234.413,1626.733,o),
(228.787,1621.107,c),
(223.161,1615.481,o),
(220,1607.85,o),
(220,1599.894,c),
(220,1591.937,o),
(223.161,1584.307,o),
(228.787,1578.681,c),
(234.413,1573.054,o),
(242.044,1569.894,o),
(250,1569.894,c),
(257.956,1569.894,o),
(265.587,1573.054,o),
(271.213,1578.681,c),
(276.839,1584.307,o),
(280,1591.937,o),
(280,1599.894,c)
);
},
{
closed = 1;
nodes = (
(280,1507.266,o),
(276.839,1514.896,o),
(271.213,1520.522,c),
(265.587,1526.149,o),
(257.956,1529.309,o),
(250,1529.309,c),
(242.044,1529.309,o),
(234.413,1526.149,o),
(228.787,1520.522,c),
(223.161,1514.896,o),
(220,1507.266,o),
(220,1499.309,c),
(220,1491.353,o),
(223.161,1483.722,o),
(228.787,1478.096,c),
(234.413,1472.47,o),
(242.044,1469.309,o),
(250,1469.309,c),
(257.956,1469.309,o),
(265.587,1472.47,o),
(271.213,1478.096,c),
(276.839,1483.722,o),
(280,1491.353,o),
(280,1499.309,c)
);
},
{
closed = 1;
nodes = (
(280,1406.673,o),
(276.839,1414.304,o),
(271.213,1419.93,c),
(265.587,1425.556,o),
(257.956,1428.717,o),
(250,1428.717,c),
(242.044,1428.717,o),
(234.413,1425.556,o),
(228.787,1419.93,c),
(223.161,1414.304,o),
(220,1406.673,o),
(220,1398.717,c),
(220,1390.76,o),
(223.161,1383.129,o),
(228.787,1377.504,c),
(234.413,1371.877,o),
(242.044,1368.717,o),
(250,1368.717,c),
(257.956,1368.717,o),
(265.587,1371.877,o),
(271.213,1377.504,c),
(276.839,1383.129,o),
(280,1390.76,o),
(280,1398.717,c)
);
},
{
closed = 1;
nodes = (
(280,1305.195,o),
(276.839,1312.825,o),
(271.213,1318.451,c),
(265.587,1324.078,o),
(257.956,1327.238,o),
(250,1327.238,c),
(242.044,1327.238,o),
(234.413,1324.078,o),
(228.787,1318.451,c),
(223.161,1312.825,o),
(220,1305.195,o),
(220,1297.238,c),
(220,1289.282,o),
(223.161,1281.651,o),
(228.787,1276.025,c),
(234.413,1270.399,o),
(242.044,1267.238,o),
(250,1267.238,c),
(257.956,1267.238,o),
(265.587,1270.399,o),
(271.213,1276.025,c),
(276.839,1281.651,o),
(280,1289.282,o),
(280,1297.238,c)
);
},
{
closed = 1;
nodes = (
(280,1204.079,o),
(276.839,1211.71,o),
(271.213,1217.336,c),
(265.587,1222.962,o),
(257.956,1226.123,o),
(250,1226.123,c),
(242.044,1226.123,o),
(234.413,1222.962,o),
(228.787,1217.336,c),
(223.161,1211.71,o),
(220,1204.079,o),
(220,1196.123,c),
(220,1188.167,o),
(223.161,1180.536,o),
(228.787,1174.91,c),
(234.413,1169.284,o),
(242.044,1166.123,o),
(250,1166.123,c),
(257.956,1166.123,o),
(265.587,1169.284,o),
(271.213,1174.91,c),
(276.839,1180.536,o),
(280,1188.167,o),
(280,1196.123,c)
);
},
{
closed = 1;
nodes = (
(280,1102.097,o),
(276.839,1109.727,o),
(271.213,1115.353,c),
(265.587,1120.98,o),
(257.956,1124.14,o),
(250,1124.14,c),
(242.044,1124.14,o),
(234.413,1120.98,o),
(228.787,1115.353,c),
(223.161,1109.727,o),
(220,1102.097,o),
(220,1094.14,c),
(220,1086.184,o),
(223.161,1078.553,o),
(228.787,1072.927,c),
(234.413,1067.301,o),
(242.044,1064.14,o),
(250,1064.14,c),
(257.956,1064.14,o),
(265.587,1067.301,o),
(271.213,1072.927,c),
(276.839,1078.553,o),
(280,1086.184,o),
(280,1094.14,c)
);
},
{
closed = 1;
nodes = (
(280,1001.352,o),
(276.839,1008.982,o),
(271.213,1014.608,c),
(265.587,1020.234,o),
(257.956,1023.395,o),
(250,1023.395,c),
(242.044,1023.395,o),
(234.413,1020.234,o),
(228.787,1014.608,c),
(223.161,1008.982,o),
(220,1001.352,o),
(220,993.395,c),
(220,985.439,o),
(223.161,977.808,o),
(228.787,972.182,c),
(234.413,966.556,o),
(242.044,963.395,o),
(250,963.395,c),
(257.956,963.395,o),
(265.587,966.556,o),
(271.213,972.182,c),
(276.839,977.808,o),
(280,985.439,o),
(280,993.395,c)
);
},
{
closed = 1;
nodes = (
(280,901.14,o),
(276.839,908.771,o),
(271.213,914.397,c),
(265.587,920.023,o),
(257.956,923.184,o),
(250,923.184,c),
(242.044,923.184,o),
(234.413,920.023,o),
(228.787,914.397,c),
(223.161,908.771,o),
(220,901.14,o),
(220,893.184,c),
(220,885.227,o),
(223.161,877.597,o),
(228.787,871.971,c),
(234.413,866.344,o),
(242.044,863.184,o),
(250,863.184,c),
(257.956,863.184,o),
(265.587,866.344,o),
(271.213,871.971,c),
(276.839,877.597,o),
(280,885.227,o),
(280,893.184,c)
);
},
{
closed = 1;
nodes = (
(280,800.395,o),
(276.839,808.026,o),
(271.213,813.652,c),
(265.587,819.278,o),
(257.956,822.439,o),
(250,822.439,c),
(242.044,822.439,o),
(234.413,819.278,o),
(228.787,813.652,c),
(223.161,808.026,o),
(220,800.395,o),
(220,792.439,c),
(220,784.482,o),
(223.161,776.852,o),
(228.787,771.226,c),
(234.413,765.599,o),
(242.044,762.439,o),
(250,762.439,c),
(257.956,762.439,o),
(265.587,765.599,o),
(271.213,771.226,c),
(276.839,776.852,o),
(280,784.482,o),
(280,792.439,c)
);
},
{
closed = 1;
nodes = (
(280,700.361,o),
(276.839,707.992,o),
(271.213,713.618,c),
(265.587,719.244,o),
(257.956,722.405,o),
(250,722.405,c),
(242.044,722.405,o),
(234.413,719.244,o),
(228.787,713.618,c),
(223.161,707.992,o),
(220,700.361,o),
(220,692.405,c),
(220,684.449,o),
(223.161,676.818,o),
(228.787,671.192,c),
(234.413,665.566,o),
(242.044,662.405,o),
(250,662.405,c),
(257.956,662.405,o),
(265.587,665.566,o),
(271.213,671.192,c),
(276.839,676.818,o),
(280,684.449,o),
(280,692.405,c)
);
},
{
closed = 1;
nodes = (
(280,599.983,o),
(276.839,607.613,o),
(271.213,613.239,c),
(265.587,618.865,o),
(257.956,622.026,o),
(250,622.026,c),
(242.044,622.026,o),
(234.413,618.865,o),
(228.787,613.239,c),
(223.161,607.613,o),
(220,599.983,o),
(220,592.026,c),
(220,584.07,o),
(223.161,576.439,o),
(228.787,570.813,c),
(234.413,565.187,o),
(242.044,562.026,o),
(250,562.026,c),
(257.956,562.026,o),
(265.587,565.187,o),
(271.213,570.813,c),
(276.839,576.439,o),
(280,584.07,o),
(280,592.026,c)
);
},
{
closed = 1;
nodes = (
(280,498.583,o),
(276.839,506.213,o),
(271.213,511.839,c),
(265.587,517.466,o),
(257.956,520.626,o),
(250,520.626,c),
(242.044,520.626,o),
(234.413,517.466,o),
(228.787,511.839,c),
(223.161,506.213,o),
(220,498.583,o),
(220,490.626,c),
(220,482.67,o),
(223.161,475.039,o),
(228.787,469.413,c),
(234.413,463.787,o),
(242.044,460.626,o),
(250,460.626,c),
(257.956,460.626,o),
(265.587,463.787,o),
(271.213,469.413,c),
(276.839,475.039,o),
(280,482.67,o),
(280,490.626,c)
);
},
{
closed = 1;
nodes = (
(280,398.294,o),
(276.839,405.925,o),
(271.213,411.551,c),
(265.587,417.177,o),
(257.956,420.338,o),
(250,420.338,c),
(242.044,420.338,o),
(234.413,417.177,o),
(228.787,411.551,c),
(223.161,405.925,o),
(220,398.294,o),
(220,390.338,c),
(220,382.381,o),
(223.161,374.751,o),
(228.787,369.125,c),
(234.413,363.498,o),
(242.044,360.338,o),
(250,360.338,c),
(257.956,360.338,o),
(265.587,363.498,o),
(271.213,369.125,c),
(276.839,374.751,o),
(280,382.381,o),
(280,390.338,c)
);
},
{
closed = 1;
nodes = (
(280,297.965,o),
(276.839,305.596,o),
(271.213,311.221,c),
(265.587,316.848,o),
(257.956,320.008,o),
(250,320.008,c),
(242.044,320.008,o),
(234.413,316.848,o),
(228.787,311.221,c),
(223.161,305.596,o),
(220,297.965,o),
(220,290.008,c),
(220,282.052,o),
(223.161,274.421,o),
(228.787,268.795,c),
(234.413,263.169,o),
(242.044,260.008,o),
(250,260.008,c),
(257.956,260.008,o),
(265.587,263.169,o),
(271.213,268.795,c),
(276.839,274.421,o),
(280,282.052,o),
(280,290.008,c)
);
},
{
closed = 1;
nodes = (
(280,197.371,o),
(276.839,205.002,o),
(271.213,210.628,c),
(265.587,216.254,o),
(257.956,219.415,o),
(250,219.415,c),
(242.044,219.415,o),
(234.413,216.254,o),
(228.787,210.628,c),
(223.161,205.002,o),
(220,197.371,o),
(220,189.415,c),
(220,181.458,o),
(223.161,173.828,o),
(228.787,168.202,c),
(234.413,162.576,o),
(242.044,159.415,o),
(250,159.415,c),
(257.956,159.415,o),
(265.587,162.576,o),
(271.213,168.202,c),
(276.839,173.828,o),
(280,181.458,o),
(280,189.415,c)
);
},
{
closed = 1;
nodes = (
(280,97.237,o),
(276.839,104.867,o),
(271.213,110.493,c),
(265.587,116.12,o),
(257.956,119.28,o),
(250,119.28,c),
(242.044,119.28,o),
(234.413,116.12,o),
(228.787,110.493,c),
(223.161,104.867,o),
(220,97.237,o),
(220,89.28,c),
(220,81.324,o),
(223.161,73.693,o),
(228.787,68.067,c),
(234.413,62.441,o),
(242.044,59.28,o),
(250,59.28,c),
(257.956,59.28,o),
(265.587,62.441,o),
(271.213,68.067,c),
(276.839,73.693,o),
(280,81.324,o),
(280,89.28,c)
);
}
);
visible = 1;
width = 500;
}
);
}
{
export = 0;
glyphname = _c.stemLD;
layers = (
{
layerId = m01;
shapes = (
{
closed = 0;
nodes = (
(250,-500,l),
(250,-400,o),
(250,400,o),
(250,500,cs),
(250,780,o),
(230,900,o),
(200,1000,cs)
);
}
);
width = 500;
},
{
layerId = "FDE4885D-BB7A-448A-91AC-7911E70BCCB6";
shapes = (
{
pos = (250,-500);
ref = _dot;
},
{
pos = (200,1000);
ref = _dot;
},
{
pos = (250,-399.616);
ref = _dot;
},
{
pos = (250,-299.081);
ref = _dot;
},
{
pos = (250,-197.775);
ref = _dot;
},
{
pos = (250,-96.677);
ref = _dot;
},
{
pos = (250,4.05);
ref = _dot;
},
{
pos = (250,104.636);
ref = _dot;
},
{
pos = (250,205.285);
ref = _dot;
},
{
pos = (250,305.753);
ref = _dot;
},
{
pos = (250,406.555);
ref = _dot;
},
{
pos = (249.995,507.521);
ref = _dot;
},
{
pos = (248.868,607.862);
ref = _dot;
},
{
pos = (245.101,708.434);
ref = _dot;
},
{
pos = (237.231,808.567);
ref = _dot;
},
{
pos = (222.699,907.856);
ref = _dot;
}
);
width = 500;
}
);
}
{
export = 0;
glyphname = _c.stemR;
layers = (
{
layerId = m01;
shapes = (
{
closed = 0;
nodes = (
(250,1000,l),
(250,900,o),
(250,600,o),
(250,500,cs),
(250,220,o),
(270,100,o),
(300,0,cs)
);
}
);
width = 500;
},
{
layerId = "FDE4885D-BB7A-448A-91AC-7911E70BCCB6";
shapes = (
{
pos = (250,1000);
ref = _dot;
},
{
pos = (300,0);
ref = _dot;
},
{
pos = (250,832.326);
ref = _dot;
},
{
pos = (250,664.794);
ref = _dot;
},
{
pos = (250.001,496.648);
ref = _dot;
},
{
pos = (253.105,329.207);
ref = _dot;
},
{
pos = (266.203,162.109);
ref = _dot;
}
);
width = 500;
}
);
}
{
export = 0;
glyphname = _c.stemRA;
layers = (
{
layerId = m01;
shapes = (
{
closed = 0;
nodes = (
(250,1700,l),
(250,1600,o),
(250,600,o),
(250,500,cs),
(250,220,o),
(270,100,o),
(300,0,cs)
);
}
);
width = 500;
}
);
}
{
glyphname = _dot;
layers = (
{
layerId = m01;
shapes = (
{
closed = 1;
nodes = (
(67,17.769,o),
(59.941,34.811,o),
(47.376,47.376,c),
(34.811,59.941,o),
(17.769,67,o),
(0,67,c),
(-17.769,67,o),
(-34.811,59.941,o),
(-47.376,47.376,c),
(-59.941,34.811,o),
(-67,17.769,o),
(-67,0,c),
(-67,-17.769,o),
(-59.941,-34.811,o),
(-47.376,-47.376,c),
(-34.811,-59.941,o),
(-17.769,-67,o),
(0,-67,c),
(17.769,-67,o),
(34.811,-59.941,o),
(47.376,-47.376,c),
(59.941,-34.811,o),
(67,-17.769,o),
(67,0,c)
);
}
);
width = 600;
},
{
layerId = "FDE4885D-BB7A-448A-91AC-7911E70BCCB6";
shapes = (
{
closed = 1;
nodes = (
(67,17.769,o),
(59.941,34.811,o),
(47.376,47.376,c),
(34.811,59.941,o),
(17.769,67,o),
(0,67,c),
(-17.769,67,o),
(-34.811,59.941,o),
(-47.376,47.376,c),
(-59.941,34.811,o),
(-67,17.769,o),
(-67,0,c),
(-67,-17.769,o),
(-59.941,-34.811,o),
(-47.376,-47.376,c),
(-34.811,-59.941,o),
(-17.769,-67,o),
(0,-67,c),
(17.769,-67,o),
(34.811,-59.941,o),
(47.376,-47.376,c),
(59.941,-34.811,o),
(67,-17.769,o),
(67,0,c)
);
}
);
width = 600;
}
);
}
